<svg width="24" height="43" viewBox="0 0 24 43" fill="none" xmlns="http://www.w3.org/2000/svg">
<path d="M4.6956 3.64903C4.08027 5.37806 3.52615 7.58266 3.29539 9.81375C3.10767 10.1291 2.93787 10.4251 2.78244 10.7122C2.54549 10.527 2.31306 10.3449 2.0754 10.1869C1.91425 10.092 1.80643 10.1869 1.76385 10.2661C1.71393 10.3674 1.72296 10.5041 1.82586 10.56C2.07509 10.7256 2.32443 10.915 2.57449 11.1128C2.42998 11.3955 2.29929 11.669 2.18631 11.9284C1.83617 11.752 1.48505 11.6032 1.13268 11.4861C0.974708 11.4026 0.872492 11.5591 0.861621 11.6649C0.846813 11.769 0.889907 11.8846 0.99405 11.9146C1.33433 12.0276 1.67732 12.1694 2.01995 12.343C1.9272 12.5821 1.85036 12.8102 1.78427 13.0341C1.33135 12.9036 0.865501 12.8154 0.43951 12.813C0.323367 12.8311 0.234205 12.9529 0.252353 13.0687C0.270501 13.1845 0.392685 13.2734 0.508828 13.2553C0.822876 13.2553 1.22393 13.313 1.67336 13.4626C1.56679 13.9264 1.507 14.3677 1.507 14.8034C1.507 16.2857 2.4583 17.6302 4.15493 19.3508C3.73972 21.5885 3.443 23.8536 3.17062 25.792C2.74209 26.6713 2.39426 27.6562 2.39426 29.3995C2.39426 30.4315 2.8581 31.8109 3.84993 32.7997C3.9318 32.8859 4.0497 32.9371 4.16879 32.938H4.82037C5.32191 33.1945 5.87106 33.315 6.38695 33.3803C6.87291 33.3851 7.18205 33.144 7.41285 32.938H8.42488C8.77102 33.2907 9.01016 33.5503 9.38146 33.6429C9.76013 33.707 10.0599 33.5655 10.3658 33.4218L11.0728 33.7673C11.1653 33.8164 11.2755 33.8314 11.3778 33.8089C12.7212 33.474 13.8597 32.6796 14.4278 31.6802C15.9692 32.54 18.3305 33.7443 18.365 35.5919C18.365 36.2922 17.9054 36.946 17.2559 37.4441C16.6065 37.9422 15.7772 38.2458 15.2596 38.2458C12.5865 37.928 10.6607 35.9042 8.28625 35.1634C7.42217 34.905 6.52639 35.1222 6.06809 35.7163C5.56027 36.6466 5.87484 37.8474 6.55331 38.5914C8.8109 40.3922 12.3513 42.6689 15.2596 42.6689C16.9179 42.6689 18.5525 42.0872 19.7929 41.2038C21.0334 40.3204 21.9141 39.1158 21.9141 37.8036C21.9141 33.7136 19.5595 30.4233 14.6773 29.0265C14.3472 26.9008 13.6113 24.7717 13.1523 22.696C14.0613 22.5821 14.9044 22.215 15.6339 21.687C15.8081 22.3038 15.925 22.9798 15.925 23.6498C15.9234 23.7666 16.0296 23.874 16.1469 23.874C16.2641 23.874 16.3703 23.7666 16.3687 23.6498C16.3687 22.8671 16.2062 22.0899 15.9944 21.3967C16.1592 21.2628 16.3016 21.1222 16.438 20.9961C16.9826 21.7584 17.4845 22.5921 17.7134 23.2767C17.7347 23.4022 17.8813 23.49 18.0023 23.4498C18.1233 23.4095 18.1878 23.2516 18.1293 23.1386C17.8676 22.3558 17.3234 21.4646 16.743 20.6644C16.8684 20.5206 16.9774 20.3737 17.0896 20.2221C17.6114 20.6314 18.1368 21.0726 18.6561 21.5905C18.7363 21.6847 18.9 21.6896 18.9857 21.6002C19.0713 21.511 19.0591 21.348 18.9611 21.2724C18.4219 20.7348 17.8897 20.2845 17.353 19.8626C17.7987 19.1753 18.1118 18.4316 18.2818 17.7063C20.03 15.5325 22.7635 12.8877 23.2449 10.0074C23.2749 9.8196 23.168 9.61832 22.9954 9.53747C21.1175 8.60123 18.5446 8.61039 16.7707 8.61136C15.0426 6.95527 13.2762 6.45772 11.6135 6.04045C11.305 4.66934 10.4623 3.31199 9.54781 2.2394C8.75447 1.38676 7.84306 0.227645 6.83056 0.20752C5.73086 0.601173 5.07415 2.59219 4.6956 3.64903ZM6.94149 1.16097C7.69264 1.50681 8.36945 2.20869 8.88238 2.80581C9.79118 3.87181 10.6244 5.27939 10.8233 6.46866C10.8508 6.63922 10.9877 6.78706 11.156 6.82806C12.9305 7.27037 14.5755 7.66645 16.2716 9.35748C16.3535 9.44369 16.4714 9.49482 16.5905 9.4957C18.2444 9.4957 20.6074 9.54463 22.2329 10.2007C21.6599 12.5253 19.2923 15.0403 17.5748 17.1808C17.534 17.2334 17.5053 17.2954 17.4916 17.3605C17.3662 17.9856 17.0654 18.6804 16.6459 19.3232C16.078 18.9108 15.5052 18.5235 14.9407 18.1483C14.7945 18.0617 14.6882 18.1426 14.6426 18.2034C14.5784 18.3059 14.5798 18.4609 14.6912 18.5214C15.2615 18.9005 15.8296 19.2721 16.3964 19.6825C16.3312 19.7696 16.258 19.8471 16.1884 19.9313C15.9166 19.6002 15.6494 19.2971 15.4121 19.0605C15.3728 19.0189 15.3168 18.9936 15.2596 18.9914C15.0788 18.9865 14.9714 19.2592 15.1071 19.3784C15.3441 19.6147 15.6185 19.917 15.8973 20.263C15.8549 20.3078 15.8162 20.3577 15.7725 20.4012C15.7405 20.4331 15.7082 20.4668 15.6755 20.498C15.6025 20.3261 15.5287 20.1499 15.4537 20.0004C15.4163 19.9237 15.3312 19.8728 15.2457 19.876C15.0949 19.884 14.9898 20.0774 15.0655 20.2078C15.1545 20.3851 15.2438 20.5907 15.3289 20.8021C14.5486 21.4439 13.6361 21.8611 12.6671 21.8802C9.64203 21.4493 7.08442 20.6053 4.95901 18.9361C3.50615 17.5355 2.48602 16.2567 2.39426 14.8035C2.39426 14.4841 2.42746 14.1617 2.49131 13.8222C2.98752 14.0856 3.51222 14.453 4.01629 14.9556C4.0964 15.0498 4.26019 15.0547 4.34582 14.9653C4.43144 14.8761 4.41925 14.7131 4.32129 14.6375C3.74792 14.0658 3.15437 13.6664 2.58835 13.3797C2.58654 13.3797 2.59016 13.3669 2.58835 13.366C2.63831 13.1822 2.69635 12.9842 2.76858 12.7855C3.47485 13.2341 4.19168 13.8034 4.90355 14.5133C4.98366 14.6075 5.14746 14.6124 5.23308 14.523C5.31871 14.4337 5.30651 14.2708 5.20855 14.1952C4.45607 13.4449 3.70729 12.8328 2.9488 12.3569C3.0392 12.1427 3.13654 11.9163 3.2538 11.6796C4.08763 12.4346 4.92299 13.3686 5.76309 14.4854C5.90099 14.6736 6.26147 14.411 6.12354 14.2228C5.2438 13.0533 4.36206 12.0715 3.47561 11.2787C3.65923 10.9323 3.85665 10.5626 4.09947 10.1591C4.13538 10.1053 4.15923 10.0434 4.16879 9.97948C4.38623 7.81151 4.9293 5.61974 5.52741 3.93919C5.89526 2.93002 6.30145 1.93422 6.94149 1.16097ZM7.17717 1.9764C7.04714 2.00382 6.93161 2.09281 6.87217 2.21135C5.95846 4.03339 5.51578 5.84928 5.06992 8.07192C5.00747 8.37251 5.34481 8.67603 5.63832 8.58336C7.02533 8.12239 8.80228 7.28409 9.936 7.28409C10.2057 7.28417 10.4332 6.99159 10.3658 6.7312C9.90104 4.87785 8.95882 3.4625 7.59307 2.10077C7.45143 1.9767 7.28999 1.97016 7.17717 1.9764ZM17.3946 9.93801C17.1596 9.98344 16.9913 10.2452 17.048 10.4771C17.479 12.1958 17.4777 13.4765 17.4777 15.2457C17.4823 15.5632 17.9076 15.7837 18.1709 15.6051C19.6154 14.645 20.9588 12.8381 21.8725 11.0161C21.9756 10.8065 21.876 10.522 21.6645 10.4218C20.2671 9.88503 18.8036 9.93832 17.3946 9.93801ZM5.33332 10.8502C5.0965 10.92 4.95505 11.213 5.0481 11.441C5.14115 11.6691 5.44762 11.7805 5.66605 11.6656C6.72305 11.2442 7.49053 11.2145 7.82875 11.4169C8.37575 11.9355 8.25985 12.7876 8.16148 13.3934C8.1215 13.6251 8.29653 13.872 8.52885 13.9118C8.76117 13.9516 9.00887 13.7771 9.04874 13.5454C9.19296 12.5131 9.18324 11.2232 8.27239 10.6567C7.29587 10.1774 6.26145 10.4834 5.33332 10.8502ZM11.9046 14.361C11.6679 14.4309 11.5266 14.7238 11.6196 14.9518C11.7126 15.1799 12.0189 15.2913 12.2373 15.1765C13.2943 14.755 14.048 14.7254 14.3862 14.9277C14.9494 15.4417 14.832 16.2931 14.7328 16.9043C14.6823 17.1365 14.8553 17.3929 15.09 17.4338C15.3248 17.4745 15.5748 17.2919 15.6062 17.0563C15.7564 16.0214 15.7599 14.7374 14.8437 14.1675C13.8672 13.6883 12.8327 13.9943 11.9046 14.361ZM7.66239 15.8954C7.51253 15.9259 7.43891 16.1382 7.53762 16.2547C7.79976 16.6008 8.19542 16.7553 8.57738 16.7385C8.80113 16.7288 8.99547 16.5772 9.20124 16.4759C9.17803 16.7436 9.21418 17.0116 9.33987 17.2361C9.53414 17.5831 9.95016 17.8022 10.4351 17.6646C10.5476 17.6358 10.6236 17.5072 10.5946 17.3951C10.5655 17.2828 10.4367 17.2071 10.3242 17.2361C10.0008 17.3279 9.84397 17.2219 9.72805 17.0149C9.61214 16.8079 9.58891 16.484 9.70032 16.2132C9.79167 16.0253 9.48417 15.813 9.33987 15.9644C9.10959 16.1651 8.82695 16.2846 8.56352 16.2962C8.30009 16.3077 8.07251 16.2223 7.89807 15.9921C7.84265 15.8868 7.73311 15.9244 7.66239 15.8954ZM4.91742 20.0143C7.01621 21.5005 9.47029 22.2732 12.2373 22.6959C12.8753 25.2322 13.8178 27.6247 13.9287 30.3116C13.9107 31.3064 12.8249 32.4596 11.2946 32.8963L11.0589 32.7722C12.2265 31.1804 13.0414 29.768 13.0414 27.6303C13.0514 27.3746 12.797 27.1421 12.5423 27.1742C12.3244 27.2017 12.1456 27.4115 12.1542 27.6303C12.1542 29.6946 11.3657 30.873 10.0746 32.5925C9.92979 32.6787 9.75236 32.7281 9.60328 32.7858C9.58827 32.7813 9.41397 32.6371 9.14579 32.385C9.91688 30.7008 9.9537 29.325 10.3658 27.2708C10.4298 26.9952 10.1622 26.6979 9.88055 26.7317C9.69734 26.7578 9.53913 26.9095 9.50624 27.0911C9.07792 29.2263 9.03795 30.4965 8.31398 32.0532H7.71784V26.7456C7.72786 26.4898 7.47344 26.2573 7.21876 26.2894C7.00084 26.3168 6.82205 26.5267 6.83058 26.7456V32.3159C6.70269 32.4474 6.62405 32.498 6.38695 32.4955C5.98696 32.4725 5.68998 32.3704 5.33332 32.2053C4.9082 30.5071 4.49505 28.7849 4.07175 25.8471C4.36506 23.8134 4.6054 21.7416 4.91742 20.0143ZM3.44789 27.6441C3.75705 29.4541 4.06971 30.7798 4.37674 32.0119C3.68122 31.2278 3.28153 30.0927 3.28153 29.3996C3.28153 28.6674 3.35071 28.1128 3.44789 27.6441Z" fill="black"/>
</svg>
