<svg width="29" height="44" viewBox="0 0 29 44" fill="none" xmlns="http://www.w3.org/2000/svg">
<path d="M16.7498 8.08392C16.5827 5.41015 15.3046 4.84922 14.2613 4.84922C13.218 4.84922 11.9399 5.41015 11.7728 8.08392C11.7728 8.13066 11.5651 12.95 11.9535 13.4315C12.0302 13.5249 12.1748 13.6371 12.3554 13.7446C12.527 14.2542 12.7799 14.4879 13.1954 14.4879C13.2903 14.4879 13.3987 14.4739 13.5116 14.4505C13.7329 14.4037 13.9993 14.3757 14.2568 14.371C14.5142 14.3757 14.7761 14.4037 15.002 14.4505C15.1194 14.4739 15.2233 14.4879 15.3181 14.4879C15.7336 14.4879 15.991 14.2542 16.1581 13.7446C16.3388 13.6371 16.4878 13.5249 16.5601 13.4315C16.953 12.9453 16.7452 8.13066 16.7407 8.08392H16.7498ZM12.8612 13.9877C13.0193 14.0485 13.1819 14.0905 13.3445 14.1186C13.1232 14.1513 12.9741 14.1186 12.8612 13.9877ZM14.2613 13.8942C14.311 13.9456 14.3742 13.9877 14.4374 14.0251C14.3787 14.0251 14.32 14.0158 14.2658 14.0158C14.2071 14.0158 14.1484 14.0251 14.0942 14.0251C14.1574 13.9877 14.2206 13.9456 14.2703 13.8942H14.2613ZM15.1781 14.1186C15.3407 14.0905 15.5033 14.0485 15.6613 13.9877C15.5484 14.1186 15.3994 14.1513 15.1781 14.1186ZM16.3027 13.2024C16.1355 13.4081 15.3542 13.8428 14.8168 13.782C14.6226 13.7587 14.4916 13.6792 14.4148 13.5296C14.4148 13.5249 14.4058 13.5203 14.4058 13.5156C14.4013 13.5062 14.3923 13.4969 14.3832 13.4875C14.3742 13.4782 14.3652 13.4689 14.3561 13.4642C14.3516 13.4642 14.3471 13.4548 14.3426 13.4548C14.3426 13.4548 14.3336 13.4548 14.329 13.4548C14.3155 13.4502 14.3065 13.4455 14.2929 13.4455C14.2839 13.4455 14.2748 13.4455 14.2658 13.4455C14.2523 13.4455 14.2432 13.4455 14.2297 13.4455C14.2206 13.4455 14.2071 13.4502 14.1981 13.4548C14.1935 13.4548 14.189 13.4548 14.1845 13.4548C14.18 13.4548 14.1755 13.4642 14.171 13.4689C14.1619 13.4735 14.1529 13.4829 14.1439 13.4922C14.1348 13.5016 14.1258 13.5109 14.1213 13.5203C14.1213 13.5249 14.1123 13.5296 14.1123 13.5343C14.0355 13.6839 13.9045 13.7633 13.7103 13.7867C13.1683 13.8475 12.387 13.4128 12.2244 13.2118C12.0483 12.9406 12.0393 10.5006 12.0844 8.95804C12.1793 9.15436 12.3735 9.29459 12.5993 9.29459C12.9154 9.29459 13.1774 9.02815 13.1774 8.70562C13.1774 8.38308 12.92 8.11197 12.5993 8.11197C12.3825 8.11197 12.2019 8.23817 12.1025 8.42048C12.107 8.30829 12.1115 8.20078 12.1206 8.11197C12.2425 6.1861 12.9651 5.20915 14.2658 5.20915C15.5665 5.20915 16.2891 6.1861 16.411 8.11197C16.4156 8.20078 16.4201 8.29894 16.4246 8.41113C16.3252 8.23817 16.1491 8.11197 15.9368 8.11197C15.6207 8.11197 15.3587 8.37841 15.3587 8.70562C15.3587 9.03283 15.6162 9.29459 15.9368 9.29459C16.1626 9.29459 16.3523 9.15904 16.4472 8.96738C16.4923 10.5099 16.4788 12.936 16.3072 13.2071L16.3027 13.2024ZM12.3644 8.70094C12.3644 8.57006 12.4683 8.46722 12.5948 8.46722C12.7212 8.46722 12.8251 8.57473 12.8251 8.70094C12.8251 8.82715 12.7212 8.93466 12.5948 8.93466C12.4683 8.93466 12.3644 8.82715 12.3644 8.70094ZM16.1626 8.70094C16.1626 8.83183 16.0588 8.93466 15.9323 8.93466C15.8059 8.93466 15.702 8.82715 15.702 8.70094C15.702 8.57473 15.8059 8.46722 15.9323 8.46722C16.0588 8.46722 16.1626 8.57473 16.1626 8.70094ZM26.7398 17.358C26.6811 17.2505 20.8551 6.32634 19.5002 5.44755C19.0892 5.1811 18.7414 4.90064 18.4434 4.6155C18.8273 4.17143 19.3286 3.25992 19.4053 2.53538C19.4957 1.68931 18.8227 0.534729 18.7956 0.48331C18.7595 0.417868 18.6873 0.385147 18.6105 0.403845C18.3034 0.469287 17.3504 0.974124 16.9169 1.3808C16.3794 0.801171 15.4265 0.20752 14.2568 0.20752C13.0871 0.20752 12.1341 0.796496 11.5922 1.3808C11.1586 0.978799 10.2057 0.473961 9.89856 0.403845C9.8263 0.385147 9.75404 0.422543 9.71339 0.48331C9.68629 0.530055 9.01336 1.68931 9.10369 2.53538C9.18047 3.25992 9.68629 4.17143 10.0657 4.6155C9.7721 4.90064 9.41983 5.18578 9.00885 5.44755C7.65396 6.32166 1.82795 17.2505 1.76924 17.358C0.626621 19.5269 -0.592777 25.1923 1.04664 28.7495C2.04022 30.8998 3.84673 32.6433 6.24037 33.7979C5.72551 34.4664 5.3913 35.836 5.3913 36.2941C5.3913 36.4951 5.49518 36.5792 5.55841 36.6119C5.60357 36.6353 5.65776 36.6446 5.71196 36.6446C5.9739 36.6446 6.32166 36.4203 6.5565 36.2473C6.69199 36.7241 6.91781 37.1541 7.28363 37.2804C7.41912 37.3271 7.53654 37.3458 7.64041 37.3458C7.95204 37.3458 8.1372 37.1682 8.30431 37.0092C8.44431 36.8737 8.58432 36.7475 8.8011 36.6867C8.8011 36.7802 8.8011 36.8737 8.8011 36.9625C8.70174 38.6546 7.60428 40.9311 7.59525 40.9544C7.56364 41.0152 7.57267 41.09 7.61332 41.1414C7.63138 41.1695 7.81655 41.3985 8.12366 41.4266C8.14172 41.4266 8.15979 41.4266 8.17785 41.4266C8.27269 41.4266 8.36754 41.4032 8.45786 41.3658C8.35399 41.7818 8.29979 42.1324 8.38108 42.2773C8.57528 42.6326 9.3566 42.4035 10.0205 42.1231C10.2915 42.4269 10.987 43.1748 11.4205 43.2075C11.4296 43.2075 11.4386 43.2075 11.4476 43.2075C11.8767 43.2075 12.2606 42.4549 12.4548 42.0015C12.7032 42.2119 13.1458 42.5297 13.5387 42.4736C13.6109 42.4643 13.6697 42.4035 13.6832 42.3287C13.6922 42.2867 13.8593 41.2302 13.2813 40.3748C12.8025 39.669 12.4954 38.3835 12.4593 36.9344C12.4503 36.654 12.4503 36.3735 12.4457 36.0977C12.4457 35.8453 12.4412 35.5929 12.4367 35.3498C13.0238 35.3919 13.6335 35.4199 14.2523 35.4199C14.871 35.4199 15.4807 35.3966 16.0678 35.3498C16.0633 35.5929 16.0588 35.8406 16.0588 36.0977C16.0588 36.3735 16.0543 36.654 16.0452 36.9344C16.0091 38.3835 15.702 39.669 15.2233 40.3748C14.6452 41.2302 14.8123 42.282 14.8213 42.3287C14.8349 42.4035 14.8936 42.4643 14.9658 42.4736C15.3542 42.5297 15.8013 42.2165 16.0497 42.0015C16.2439 42.4549 16.6278 43.2075 17.0569 43.2075C17.0659 43.2075 17.0749 43.2075 17.084 43.2075C17.5175 43.1748 18.213 42.4269 18.484 42.1231C19.1479 42.4035 19.9292 42.6326 20.1234 42.2773C20.2002 42.1324 20.1505 41.7818 20.0467 41.3658C20.137 41.4079 20.2318 41.4266 20.3267 41.4266C20.3447 41.4266 20.3628 41.4266 20.3809 41.4266C20.688 41.4032 20.8731 41.1695 20.8912 41.1414C20.9318 41.0853 20.9409 41.0152 20.9093 40.9544C20.9002 40.9311 19.8028 38.6546 19.7034 36.9625C19.6989 36.8737 19.6989 36.7802 19.7034 36.6867C19.9247 36.7521 20.0602 36.8784 20.2002 37.0092C20.3673 37.1682 20.5525 37.3458 20.8641 37.3458C20.968 37.3458 21.0854 37.3271 21.2209 37.2804C21.5867 37.1541 21.8125 36.7241 21.948 36.2473C22.1829 36.4203 22.5306 36.6446 22.7926 36.6446C22.8513 36.6446 22.9009 36.6353 22.9461 36.6119C23.0093 36.5792 23.1132 36.4951 23.1132 36.2941C23.1132 35.836 22.779 34.4664 22.2642 33.7979C24.6533 32.6433 26.4643 30.8998 27.4534 28.7495C29.0928 25.1923 27.8734 19.5269 26.7308 17.358H26.7398ZM18.5743 0.787148C18.7369 1.09099 19.1344 1.90901 19.0711 2.49331C19.0034 3.13371 18.5472 3.96108 18.2085 4.36308C18.1724 4.32101 18.1408 4.28361 18.1092 4.24154C18.1137 4.2322 18.1227 4.22752 18.1227 4.21817C18.1408 4.17143 18.1363 4.12001 18.1182 4.07327C18.0866 4.00782 17.8111 3.45157 17.5762 3.21317C17.5537 3.08229 17.5446 2.96543 17.5582 2.86259C17.6033 2.49331 17.4498 2.06326 17.1562 1.65192C17.4679 1.35275 18.2311 0.922706 18.5834 0.787148H18.5743ZM9.95727 0.787148C10.3095 0.922706 11.0728 1.35275 11.3844 1.65192C11.0863 2.06326 10.9373 2.49331 10.9825 2.86259C10.996 2.9701 10.987 3.08696 10.9644 3.21785C10.7296 3.45624 10.4541 4.0125 10.4224 4.07794C10.3999 4.12468 10.3999 4.1761 10.4179 4.22285C10.4179 4.2322 10.427 4.23687 10.4315 4.24622C10.3999 4.28829 10.3683 4.32568 10.3321 4.36775C9.9934 3.97043 9.53725 3.13838 9.46951 2.49799C9.40628 1.91368 9.80371 1.09566 9.9663 0.791822L9.95727 0.787148ZM8.08753 36.7521C7.87526 36.9531 7.75784 37.0653 7.4146 36.9485C6.90878 36.7755 6.71457 35.4106 6.71006 34.5972C6.71006 34.4991 6.63328 34.4196 6.53844 34.4196C6.4436 34.4196 6.36682 34.4991 6.36682 34.5972C6.36682 34.7188 6.37585 35.2984 6.49328 35.8967C6.4707 35.9014 6.45263 35.9107 6.43457 35.9248C6.15456 36.1398 5.81583 36.3174 5.75712 36.2987C5.75712 35.8687 6.12294 34.4851 6.58812 33.9568C7.12104 34.1999 7.68558 34.4103 8.27269 34.5926C8.53915 35.1909 8.72884 35.7799 8.8011 36.3361C8.46238 36.4156 8.25463 36.5979 8.09204 36.7568L8.08753 36.7521ZM22.8151 36.2941C22.7248 36.3127 22.3906 36.1398 22.1106 35.9201C22.0925 35.9061 22.0745 35.8967 22.0519 35.8921C22.1693 35.2984 22.1783 34.7141 22.1783 34.5926C22.1783 34.4944 22.1016 34.4149 22.0067 34.4149C21.9119 34.4149 21.8351 34.4944 21.8351 34.5926C21.8351 35.4106 21.6364 36.7708 21.1306 36.9438C20.7828 37.0653 20.6654 36.9531 20.4576 36.7475C20.2951 36.5932 20.0873 36.4062 19.7486 36.3268C19.8163 35.7705 20.0105 35.1815 20.277 34.5832C20.8641 34.4009 21.4286 34.1906 21.9616 33.9475C22.4313 34.4757 22.7926 35.8593 22.8197 36.2894L22.8151 36.2941ZM27.1598 28.6C25.9856 31.1428 23.6236 33.1014 20.4802 34.1485C20.9364 33.237 21.5415 32.3068 22.1422 31.442C22.1964 31.3625 22.1783 31.2503 22.1016 31.1943C22.0248 31.1382 21.9164 31.1569 21.8622 31.2363C21.1712 32.2273 20.4757 33.3024 19.997 34.3588C19.997 34.3588 19.997 34.3588 19.997 34.3635C19.6718 35.0787 19.446 35.7845 19.3873 36.4483C19.3873 36.4483 19.3873 36.4483 19.3873 36.453C19.3873 36.453 19.3873 36.453 19.3873 36.4577C19.3737 36.6353 19.3647 36.8129 19.3737 36.9812C19.4641 38.5424 20.3267 40.4917 20.5615 40.9918C20.5118 41.0292 20.4441 41.0666 20.3673 41.0713C20.2499 41.0807 20.1325 41.0246 20.006 40.903C19.9834 40.8797 19.9518 40.8797 19.9247 40.8703C19.7937 40.4449 19.6357 40.0102 19.5047 39.6737C19.4686 39.5802 19.3692 39.5381 19.2789 39.5755C19.1886 39.6129 19.1479 39.7157 19.1795 39.8045C19.5453 40.7581 19.8976 41.908 19.8479 42.0903C19.735 42.1651 19.0982 42.0015 18.5201 41.7444C18.4524 41.7164 18.3711 41.7351 18.3214 41.7912C17.9601 42.2212 17.3324 42.8289 17.0749 42.8523C16.9124 42.8523 16.5375 42.2867 16.2936 41.6369C16.271 41.5808 16.2259 41.5387 16.1672 41.5294C16.113 41.5154 16.0497 41.5341 16.0091 41.5761C15.8781 41.7117 15.4717 42.0623 15.16 42.1184C15.1374 41.8239 15.142 41.1414 15.5213 40.5805C16.0362 39.8232 16.3659 38.463 16.4065 36.9485C16.4156 36.6633 16.4156 36.3829 16.4201 36.1024C16.4291 35.0974 16.4381 34.1485 16.6685 33.5408C16.7046 33.4473 16.6594 33.3445 16.5691 33.3118C16.4788 33.2744 16.3794 33.3211 16.3433 33.4099C16.1807 33.8306 16.122 34.3822 16.0949 34.9946C15.5033 35.0413 14.8936 35.0647 14.2658 35.0647C13.638 35.0647 13.0283 35.0413 12.4367 34.9946C12.4096 34.3822 12.3464 33.8353 12.1883 33.4099C12.1522 33.3164 12.0528 33.2697 11.9625 33.3118C11.8722 33.3492 11.8315 33.452 11.8631 33.5408C12.0935 34.1438 12.1025 35.0974 12.1115 36.1024C12.1115 36.3782 12.1161 36.6633 12.1251 36.9438C12.1657 38.4583 12.4954 39.8186 13.0103 40.5758C13.3896 41.1321 13.3942 41.8192 13.3716 42.1137C13.06 42.0576 12.6535 41.707 12.5225 41.5715C12.4819 41.5294 12.4232 41.5107 12.3644 41.5247C12.3057 41.5388 12.2606 41.5761 12.238 41.6322C11.9986 42.2773 11.6283 42.8476 11.4612 42.8476C11.4612 42.8476 11.4612 42.8476 11.4567 42.8476C11.1992 42.8289 10.5715 42.2165 10.2102 41.7865C10.1605 41.7304 10.0837 41.7117 10.0115 41.7397C9.42886 41.9922 8.8011 42.1605 8.69723 42.1044C8.634 41.9034 8.98627 40.7534 9.35209 39.7999C9.38822 39.7064 9.34305 39.6035 9.25273 39.5708C9.1624 39.5334 9.06304 39.5802 9.02691 39.669C8.89594 40.0055 8.73787 40.4449 8.6069 40.8656C8.5798 40.8703 8.54819 40.875 8.52561 40.8984C8.39915 41.0199 8.27721 41.076 8.1643 41.0666C8.08301 41.062 8.01527 41.0246 7.9701 40.9872C8.20495 40.487 9.06756 38.5378 9.15789 36.9765C9.16692 36.8036 9.15789 36.6259 9.14434 36.4483C9.14434 36.4483 9.14434 36.4483 9.14434 36.4436C9.08562 35.7752 8.85981 35.0694 8.53464 34.3588C8.53464 34.3588 8.53464 34.3588 8.53464 34.3542C8.05591 33.2977 7.3604 32.2273 6.66941 31.2317C6.61522 31.1522 6.50683 31.1335 6.43005 31.1896C6.35327 31.2457 6.33521 31.3579 6.3894 31.4373C6.99007 32.3021 7.59525 33.2276 8.0514 34.1438C4.90806 33.0967 2.54153 31.1382 1.37181 28.5953C-0.0869529 25.4307 0.820821 19.9242 2.08538 17.5263C3.55317 14.7356 8.15979 6.4245 9.20756 5.74671C9.57338 5.51299 10.0431 5.16708 10.4541 4.74171C10.4992 4.69496 10.5354 4.64355 10.5805 4.5968C10.6437 4.95206 10.9644 5.30731 11.0141 5.36341C11.0457 5.4008 11.0909 5.4195 11.136 5.4195C11.1676 5.4195 11.2038 5.41015 11.2309 5.39145C11.3528 5.30731 11.547 5.07827 11.5109 4.74171C11.4793 4.42852 11.0773 4.19013 10.8108 4.06859C10.9418 3.82552 11.118 3.53103 11.2263 3.44222C11.2534 3.41885 11.2715 3.38613 11.2805 3.3534C11.2805 3.3534 11.2805 3.34873 11.2851 3.34406C11.2851 3.33938 11.2851 3.33471 11.2851 3.33003C11.3212 3.14773 11.3302 2.97945 11.3122 2.82987C11.2715 2.50733 11.4386 2.09599 11.7728 1.71268C12.2425 1.16578 13.1413 0.576799 14.2568 0.576799C15.3723 0.576799 16.271 1.1611 16.7407 1.71268C17.0749 2.10066 17.242 2.50733 17.2014 2.83454C17.1833 2.9888 17.1924 3.1524 17.2285 3.33471C17.2285 3.33471 17.2285 3.33471 17.2285 3.33938C17.2285 3.34406 17.2285 3.34873 17.2285 3.3534C17.2285 3.3534 17.2285 3.35808 17.233 3.36275C17.242 3.39547 17.2601 3.4282 17.2872 3.45624C17.3956 3.54506 17.5762 3.83954 17.7027 4.08261C17.4362 4.20415 17.0298 4.43787 17.0027 4.75573C16.9711 5.09696 17.1653 5.32601 17.2827 5.40548C17.3098 5.42417 17.3459 5.43352 17.3775 5.43352C17.4227 5.43352 17.4679 5.41482 17.4995 5.37743C17.5537 5.32134 17.8698 4.96608 17.933 4.61082C17.9737 4.65757 18.0143 4.70899 18.0595 4.75573C18.4705 5.1811 18.9402 5.52701 19.306 5.76073C20.3538 6.43852 24.9559 14.7496 26.4282 17.5403C27.6927 19.9429 28.6005 25.4447 27.1417 28.6093L27.1598 28.6ZM12.6174 15.0021L12.3103 15.8294C12.2922 15.8762 12.247 15.9042 12.2019 15.9042C12.1883 15.9042 12.1748 15.9042 12.1612 15.8949C12.1025 15.8715 12.0709 15.8014 12.0935 15.7406L12.4006 14.9132C12.4232 14.8525 12.4909 14.8198 12.5496 14.8431C12.6083 14.8665 12.6399 14.9366 12.6174 14.9974V15.0021ZM11.949 14.0251C12.0031 14.0578 12.0257 14.1279 11.9941 14.184L11.4476 15.2031C11.4251 15.2405 11.3889 15.2638 11.3483 15.2638C11.3302 15.2638 11.3122 15.2638 11.2941 15.2498C11.2399 15.2171 11.2173 15.147 11.2489 15.0909L11.7954 14.0719C11.827 14.0158 11.8948 13.9924 11.9535 14.0251H11.949ZM13.5026 14.96V15.7546C13.5026 15.8201 13.4529 15.8715 13.3851 15.8715C13.3174 15.8715 13.2677 15.8201 13.2677 15.7546V14.96C13.2677 14.8945 13.3174 14.8431 13.3851 14.8431C13.4529 14.8431 13.5026 14.8945 13.5026 14.96ZM16.1355 14.9179L16.4336 15.7126C16.4562 15.7733 16.4246 15.8435 16.3659 15.8668C16.3523 15.8715 16.3388 15.8762 16.3252 15.8762C16.2801 15.8762 16.2349 15.8481 16.2168 15.8014L15.9188 15.0067C15.8962 14.946 15.9278 14.8759 15.9865 14.8525C16.0452 14.8291 16.113 14.8618 16.1355 14.9226V14.9179ZM17.2872 15.0956C17.3188 15.1516 17.2962 15.2264 17.242 15.2545C17.224 15.2638 17.2059 15.2685 17.1878 15.2685C17.1472 15.2685 17.1066 15.2451 17.0885 15.2077L16.542 14.1887C16.5104 14.1326 16.533 14.0578 16.5872 14.0298C16.6414 13.9971 16.7136 14.0204 16.7452 14.0765L17.2917 15.0956H17.2872ZM15.2639 14.96V15.7546C15.2639 15.8201 15.2142 15.8715 15.1465 15.8715C15.0787 15.8715 15.0291 15.8201 15.0291 15.7546V14.96C15.0291 14.8945 15.0787 14.8431 15.1465 14.8431C15.2142 14.8431 15.2639 14.8945 15.2639 14.96ZM17.9104 13.8709C17.9646 13.9082 17.9782 13.9784 17.9421 14.0345C17.9195 14.0672 17.8834 14.0859 17.8472 14.0859C17.8246 14.0859 17.8021 14.0812 17.784 14.0672L17.1246 13.6231C17.0704 13.5857 17.0569 13.5156 17.093 13.4595C17.1291 13.4034 17.1969 13.3894 17.2511 13.4268L17.9104 13.8709ZM11.4115 13.6231L10.7521 14.0672C10.7521 14.0672 10.7115 14.0859 10.6889 14.0859C10.6528 14.0859 10.6166 14.0672 10.5941 14.0345C10.5579 13.9784 10.576 13.9082 10.6257 13.8709L11.2851 13.4268C11.3393 13.3894 11.4115 13.4034 11.4431 13.4595C11.4793 13.5156 11.4612 13.5857 11.4115 13.6231Z" fill="black"/>
</svg>
