<svg width="12" height="12" viewBox="0 0 12 12" fill="none" xmlns="http://www.w3.org/2000/svg">
<g clip-path="url(#clip0_249_5440)">
<path d="M4.875 1.5C4.77554 1.5 4.68016 1.53951 4.60984 1.60984C4.53951 1.68016 4.5 1.77554 4.5 1.875C4.5 1.97446 4.53951 2.06984 4.60984 2.14016C4.68016 2.21049 4.77554 2.25 4.875 2.25H7.125C7.22446 2.25 7.31984 2.21049 7.39017 2.14016C7.46049 2.06984 7.5 1.97446 7.5 1.875C7.5 1.77554 7.46049 1.68016 7.39017 1.60984C7.31984 1.53951 7.22446 1.5 7.125 1.5H4.875ZM8.25 6C8.25 6.59674 8.01295 7.16903 7.59099 7.59099C7.16903 8.01295 6.59674 8.25 6 8.25C5.40326 8.25 4.83097 8.01295 4.40901 7.59099C3.98705 7.16903 3.75 6.59674 3.75 6C3.75 5.40326 3.98705 4.83097 4.40901 4.40901C4.83097 3.98705 5.40326 3.75 6 3.75C6.59674 3.75 7.16903 3.98705 7.59099 4.40901C8.01295 4.83097 8.25 5.40326 8.25 6Z" fill="black"/>
<path d="M3.375 0C2.87772 0 2.40081 0.197544 2.04917 0.549175C1.69754 0.900805 1.5 1.37772 1.5 1.875V10.5C1.5 10.8978 1.65804 11.2794 1.93934 11.5607C2.22064 11.842 2.60218 12 3 12H9C9.39782 12 9.77936 11.842 10.0607 11.5607C10.342 11.2794 10.5 10.8978 10.5 10.5V1.875C10.5 1.37772 10.3025 0.900805 9.95082 0.549175C9.59919 0.197544 9.12228 0 8.625 0L3.375 0ZM2.25 1.875C2.25 1.57663 2.36853 1.29048 2.5795 1.0795C2.79048 0.868526 3.07663 0.75 3.375 0.75H8.625C8.92337 0.75 9.20952 0.868526 9.4205 1.0795C9.63147 1.29048 9.75 1.57663 9.75 1.875V9.97125C9.57008 9.82734 9.37491 9.7036 9.168 9.60225C8.544 9.29025 7.54725 9 6 9C4.45275 9 3.456 9.29025 2.832 9.60225C2.62509 9.7036 2.42992 9.82734 2.25 9.97125V1.875Z" fill="black"/>
</g>
<defs>
<clipPath id="clip0_249_5440">
<rect width="12" height="12" fill="white"/>
</clipPath>
</defs>
</svg>
