<svg width="12" height="12" viewBox="0 0 12 12" fill="none" xmlns="http://www.w3.org/2000/svg">
<g clip-path="url(#clip0_249_5445)">
<path d="M3.75 4.68751C3.75 4.83669 3.69074 4.97977 3.58525 5.08526C3.47976 5.19075 3.33668 5.25001 3.1875 5.25001C3.03832 5.25001 2.89524 5.19075 2.78975 5.08526C2.68426 4.97977 2.625 4.83669 2.625 4.68751C2.625 4.53832 2.68426 4.39525 2.78975 4.28976C2.89524 4.18427 3.03832 4.12501 3.1875 4.12501C3.33668 4.12501 3.47976 4.18427 3.58525 4.28976C3.69074 4.39525 3.75 4.53832 3.75 4.68751ZM4.6035 3.56551C5.04884 3.43825 5.50984 3.37413 5.973 3.37501C6.4725 3.37501 6.95025 3.44776 7.39275 3.57976C7.48731 3.60584 7.58833 3.59383 7.67414 3.54631C7.75996 3.49878 7.82373 3.41953 7.85179 3.32553C7.87985 3.23154 7.86997 3.13029 7.82425 3.0435C7.77854 2.95671 7.70063 2.89129 7.60725 2.86126C7.07685 2.7036 6.52633 2.62402 5.973 2.62501C5.4225 2.62501 4.89225 2.70226 4.3965 2.84401C4.30082 2.87146 4.21997 2.93579 4.17173 3.02286C4.12348 3.10992 4.1118 3.21258 4.13925 3.30826C4.1667 3.40394 4.23103 3.48479 4.3181 3.53303C4.40516 3.58128 4.50782 3.59296 4.6035 3.56551Z" fill="black"/>
<path fill-rule="evenodd" clip-rule="evenodd" d="M5.973 1.14526C3.74025 1.14526 1.79475 2.42326 1.233 4.23901H0.820497C0.711154 4.23913 0.60316 4.26316 0.504081 4.30941C0.405002 4.35566 0.317233 4.42302 0.246925 4.50676C0.176617 4.5905 0.125469 4.6886 0.0970659 4.79419C0.0686624 4.89978 0.06369 5.0103 0.082497 5.11801L0.272997 6.21301C0.318395 6.47406 0.454478 6.71071 0.657265 6.88126C0.860053 7.0518 1.11653 7.1453 1.3815 7.14526H1.57875C1.80375 7.53001 2.09475 7.87876 2.4375 8.18176L1.89075 10.0395C1.87431 10.0954 1.87113 10.1544 1.88148 10.2118C1.89183 10.2692 1.91541 10.3234 1.95036 10.37C1.9853 10.4167 2.03065 10.4546 2.08279 10.4807C2.13494 10.5067 2.19245 10.5203 2.25075 10.5203H3.75075C3.82812 10.5203 3.90361 10.4964 3.96685 10.4518C4.03009 10.4072 4.078 10.3441 4.104 10.2713L4.4655 9.25801C4.94175 9.38776 5.448 9.45826 5.97375 9.45826C6.504 9.45826 7.01475 9.38701 7.49475 9.25426L7.902 10.2833C7.92967 10.3532 7.97772 10.4132 8.03991 10.4554C8.1021 10.4977 8.17556 10.5203 8.25075 10.5203H9.75075C9.80926 10.5202 9.86695 10.5065 9.9192 10.4801C9.97145 10.4538 10.0168 10.4156 10.0516 10.3685C10.0865 10.3215 10.1098 10.267 10.1198 10.2094C10.1298 10.1517 10.1262 10.0925 10.1092 10.0365L9.5385 8.15701C10.3575 7.42126 10.875 6.41926 10.875 5.30176C10.875 5.19276 10.87 5.08501 10.86 4.97851C11.0557 4.89601 11.241 4.77901 11.3887 4.64551C11.625 4.87501 12 4.87501 12 4.33276C12 4.50001 11.625 4.50001 11.6542 4.31326C11.6853 4.25286 11.708 4.18853 11.7217 4.12201C11.7394 4.03515 11.7347 3.94523 11.7083 3.86064C11.6818 3.77605 11.6343 3.69955 11.5702 3.63826C11.5027 3.56865 11.4138 3.52361 11.3178 3.51029C11.2217 3.49697 11.1239 3.51615 11.04 3.56476C10.963 3.60765 10.8974 3.66825 10.8485 3.74154C10.7996 3.81484 10.7688 3.89873 10.7587 3.98626C10.7407 4.16851 10.8202 4.34626 10.9987 4.47676C10.937 4.51984 10.872 4.55819 10.8045 4.59151C10.404 2.59351 8.3415 1.14526 5.973 1.14526ZM1.887 4.69501C2.22825 3.14551 3.88725 1.89526 5.973 1.89526C8.3325 1.89526 10.125 3.48076 10.125 5.30176C10.125 6.24226 9.657 7.10926 8.8725 7.73776C8.81419 7.78467 8.77125 7.84794 8.7492 7.91944C8.72714 7.99095 8.72699 8.06742 8.74875 8.13901L9.24375 9.77026H8.505L8.0625 8.65501C8.02687 8.56514 7.95791 8.4925 7.87001 8.45226C7.78211 8.41201 7.68206 8.40727 7.59075 8.43901C7.095 8.61151 6.54825 8.70826 5.973 8.70826C5.42253 8.70909 4.87577 8.61809 4.35525 8.43901C4.26184 8.40654 4.15939 8.41229 4.07019 8.45499C3.981 8.49769 3.91228 8.57389 3.879 8.66701L3.48525 9.77026H2.751L3.22575 8.15776C3.24693 8.08591 3.2461 8.00935 3.22338 7.93797C3.20066 7.86659 3.15707 7.80365 3.09825 7.75726C2.69699 7.44666 2.36834 7.05223 2.13525 6.60151C2.10403 6.53956 2.05623 6.48748 1.99718 6.45106C1.93812 6.41465 1.87012 6.39534 1.80075 6.39526H1.38075C1.29255 6.39517 1.2072 6.36398 1.13972 6.3072C1.07223 6.25041 1.02692 6.17165 1.01175 6.08476L0.821247 4.98976H1.521C1.60646 4.98969 1.68933 4.96043 1.75589 4.90683C1.82245 4.85323 1.86871 4.7785 1.887 4.69501ZM11.3527 4.05226C11.3387 4.10904 11.3137 4.16254 11.2792 4.20976L11.2462 4.19101C11.1367 4.12351 11.1285 4.05976 11.1322 4.02376C11.1362 3.99692 11.1461 3.97131 11.1613 3.94884C11.1765 3.92638 11.1965 3.90763 11.22 3.89401C11.2567 3.87376 11.28 3.87826 11.3047 3.90301C11.3257 3.92104 11.3413 3.94453 11.3498 3.97087C11.3583 3.99721 11.3593 4.02538 11.3527 4.05226Z" fill="black"/>
</g>
<defs>
<clipPath id="clip0_249_5445">
<rect width="12" height="12" fill="white"/>
</clipPath>
</defs>
</svg>
