<svg width="5" height="15" viewBox="0 0 5 15" fill="none" xmlns="http://www.w3.org/2000/svg">
<path d="M3.79589 0H1.20409C0.784292 0 0.442749 0.341543 0.442749 0.761338V14.2387C0.442749 14.6585 0.784292 15 1.20409 15H3.79589C4.21569 15 4.55723 14.6585 4.55723 14.2387V0.761338C4.55723 0.341543 4.21572 0 3.79589 0ZM4.07128 1.03673H3.01835C2.88417 1.03673 2.77537 1.14548 2.77537 1.27972C2.77537 1.41393 2.88415 1.52271 3.01835 1.52271H4.07128V2.07346H3.53673C3.40255 2.07346 3.29374 2.18221 3.29374 2.31645C3.29374 2.45068 3.40252 2.55943 3.53673 2.55943H4.07128V3.11019H3.01835C2.88417 3.11019 2.77537 3.21894 2.77537 3.35317C2.77537 3.48738 2.88415 3.59616 3.01835 3.59616H4.07128V4.14691H3.53673C3.40255 4.14691 3.29374 4.25566 3.29374 4.3899C3.29374 4.52411 3.40252 4.63289 3.53673 4.63289H4.07128V5.18364H3.01835C2.88417 5.18364 2.77537 5.29239 2.77537 5.42663C2.77537 5.56084 2.88415 5.66962 3.01835 5.66962H4.07128V6.22037H3.53673C3.40255 6.22037 3.29374 6.32912 3.29374 6.46336C3.29374 6.59757 3.40252 6.70635 3.53673 6.70635H4.07128V7.2571H3.01835C2.88417 7.2571 2.77537 7.36585 2.77537 7.50009C2.77537 7.63433 2.88415 7.74308 3.01835 7.74308H4.07128V8.29383H3.53673C3.40255 8.29383 3.29374 8.40258 3.29374 8.53682C3.29374 8.67105 3.40252 8.7798 3.53673 8.7798H4.07128V9.33056H3.01835C2.88417 9.33056 2.77537 9.43931 2.77537 9.57355C2.77537 9.70775 2.88415 9.81653 3.01835 9.81653H4.07128V10.3673H3.53673C3.40255 10.3673 3.29374 10.476 3.29374 10.6103C3.29374 10.7445 3.40252 10.8533 3.53673 10.8533H4.07128V11.404H3.01835C2.88417 11.404 2.77537 11.5128 2.77537 11.647C2.77537 11.7812 2.88415 11.89 3.01835 11.89H4.07128V12.4407H3.53673C3.40255 12.4407 3.29374 12.5495 3.29374 12.6837C3.29374 12.818 3.40252 12.9267 3.53673 12.9267H4.07128V13.4775H3.01835C2.88417 13.4775 2.77537 13.5862 2.77537 13.7205C2.77537 13.8547 2.88415 13.9634 3.01835 13.9634H4.07128V14.2388C4.07128 14.3907 3.94777 14.5142 3.79589 14.5142H1.20409C1.05224 14.5142 0.928696 14.3907 0.928696 14.2388V0.761338C0.928696 0.609492 1.05221 0.485947 1.20409 0.485947H3.79589C3.94774 0.485947 4.07128 0.609492 4.07128 0.761338V1.03673Z" fill="black"/>
</svg>
