<svg width="29" height="29" viewBox="0 0 29 29" fill="none" xmlns="http://www.w3.org/2000/svg">
<path d="M27.6262 6.65036H7.55905C7.62546 6.57213 7.66598 6.4738 7.67465 6.36983C7.68332 6.26586 7.65968 6.16174 7.6072 6.07279C7.55473 5.98383 7.47619 5.91474 7.38314 5.87567C7.29009 5.8366 7.18745 5.82961 7.0903 5.85574L5.79186 6.20186C5.68872 6.2295 5.59771 6.29284 5.53381 6.38145C5.46991 6.47006 5.43693 6.57866 5.44029 6.68936H4.92936C4.69498 6.36274 4.14654 6.64549 3.84654 6.68936H3.78092C3.66967 6.34375 3.44385 6.05056 3.14383 5.86221C2.84381 5.67385 2.48916 5.60261 2.14327 5.66123C1.79739 5.71984 1.48283 5.90449 1.25582 6.18215C1.02882 6.45982 0.904175 6.8124 0.904175 7.17686C0.904175 7.54133 1.02882 7.89391 1.25582 8.17157C1.48283 8.44924 1.79739 8.63389 2.14327 8.6925C2.48916 8.75111 2.84381 8.67988 3.14383 8.49152C3.44385 8.30317 3.66967 8.00997 3.78092 7.66436H7.97623V9.83861H6.48092C5.82781 9.83991 5.20187 10.1106 4.74049 10.5914C4.27911 11.0721 4.01998 11.7236 4.01998 12.4029V25.5654C4.01998 26.2442 4.27926 26.8951 4.74077 27.3751C5.20229 27.8551 5.82824 28.1247 6.48092 28.1247H20.5012C21.1543 28.1247 21.7808 27.8552 22.243 27.3754C22.7053 26.8956 22.9656 26.2446 22.9669 25.5654V12.4029C22.9656 11.7232 22.7055 11.0717 22.2433 10.5911C21.7812 10.1105 21.1548 9.8399 20.5012 9.83861H19.0106V7.62536H27.6262C27.7506 7.62536 27.8698 7.574 27.9577 7.48258C28.0456 7.39116 28.095 7.26716 28.095 7.13786C28.095 7.00857 28.0456 6.88457 27.9577 6.79315C27.8698 6.70173 27.7506 6.65036 27.6262 6.65036ZM2.38404 7.70336C2.24915 7.6903 2.1238 7.62532 2.03255 7.52118C1.9413 7.41703 1.89073 7.2812 1.89073 7.1403C1.89073 6.9994 1.9413 6.86358 2.03255 6.75943C2.1238 6.65528 2.24915 6.59031 2.38404 6.57724C2.51894 6.59031 2.64429 6.65528 2.73554 6.75943C2.82679 6.86358 2.87736 6.9994 2.87736 7.1403C2.87736 7.2812 2.82679 7.41703 2.73554 7.52118C2.64429 7.62532 2.51894 7.6903 2.38404 7.70336ZM22.0294 12.3639V25.5264C22.0281 25.947 21.8666 26.35 21.5801 26.647C21.2937 26.944 20.9057 27.1107 20.5012 27.1107H6.48092C6.07726 27.1095 5.69048 26.9421 5.40505 26.6453C5.11962 26.3484 4.95872 25.9462 4.95748 25.5264V12.3639C4.95748 11.9432 5.11784 11.5397 5.4034 11.2418C5.68897 10.9439 6.07645 10.7759 6.48092 10.7746H20.5012C20.9065 10.7746 21.2952 10.9421 21.5818 11.2401C21.8684 11.5381 22.0294 11.9424 22.0294 12.3639ZM18.0731 9.79961H8.91373V7.62536H18.0731V9.79961Z" fill="black"/>
<path d="M21.6825 3.30132C21.6825 3.33057 23.0887 2.96982 23.0887 2.96495C23.201 2.92734 23.2955 2.84711 23.3533 2.74026C23.4112 2.63341 23.4283 2.50779 23.4011 2.38845C23.3739 2.26912 23.3044 2.16483 23.2066 2.09639C23.1087 2.02795 22.9896 2.00039 22.8731 2.0192L21.5606 2.33607C21.4428 2.35905 21.3379 2.4281 21.2675 2.52903C21.1971 2.62995 21.1666 2.75508 21.1822 2.87869C21.1978 3.0023 21.2584 3.115 21.3514 3.1936C21.4445 3.27221 21.5629 3.31076 21.6825 3.30132Z" fill="black"/>
<path d="M19.0528 3.93995C19.0528 3.9692 20.4591 3.60845 20.4591 3.60845C20.5803 3.57871 20.6852 3.50011 20.7507 3.38995C20.8161 3.27978 20.8369 3.14707 20.8083 3.02101C20.7797 2.89495 20.7041 2.78587 20.5982 2.71775C20.4923 2.64964 20.3647 2.62809 20.2434 2.65782L18.9309 2.9747C18.8131 2.99768 18.7082 3.06673 18.6379 3.16765C18.5675 3.26858 18.537 3.39371 18.5526 3.51732C18.5682 3.64093 18.6287 3.75362 18.7218 3.83223C18.8148 3.91084 18.9333 3.94938 19.0528 3.93995Z" fill="black"/>
<path d="M24.3122 2.65778C24.3122 2.6919 25.7184 2.32628 25.7184 2.32628C25.8396 2.29719 25.9448 2.21921 26.0107 2.1095C26.0766 1.99979 26.0979 1.86734 26.07 1.74128C26.042 1.61522 25.967 1.50588 25.8615 1.43731C25.756 1.36874 25.6287 1.34656 25.5075 1.37565L24.1903 1.6974C24.0786 1.72643 23.9811 1.79718 23.9164 1.89617C23.8516 1.99515 23.8242 2.11545 23.8392 2.23414C23.8543 2.35283 23.9108 2.4616 23.998 2.53973C24.0853 2.61785 24.1971 2.65987 24.3122 2.65778Z" fill="black"/>
<path d="M16.4184 4.57851C16.4184 4.61263 17.8247 4.24701 17.8247 4.24701C17.949 4.21727 18.0568 4.13739 18.1245 4.02494C18.1922 3.91249 18.2142 3.77668 18.1856 3.64738C18.157 3.51809 18.0802 3.4059 17.9721 3.33551C17.8639 3.26511 17.7334 3.24227 17.609 3.27201L16.2965 3.59376C16.171 3.61057 16.057 3.67856 15.9796 3.78278C15.9023 3.88701 15.8679 4.01892 15.884 4.14951C15.9002 4.28009 15.9656 4.39865 16.0658 4.47911C16.166 4.55956 16.2928 4.59532 16.4184 4.57851Z" fill="black"/>
<path d="M8.52933 6.49935C8.52933 6.53348 9.93558 6.16785 9.93558 6.16785C10.0395 6.12568 10.1256 6.04634 10.1783 5.9441C10.231 5.84185 10.2469 5.7234 10.2232 5.61003C10.1995 5.49667 10.1377 5.39582 10.0489 5.3256C9.96006 5.25539 9.85008 5.22042 9.7387 5.22698L8.40745 5.53898C8.29578 5.56801 8.19828 5.63876 8.13354 5.73774C8.06879 5.83673 8.04134 5.95703 8.0564 6.07571C8.07146 6.1944 8.12799 6.30317 8.21521 6.3813C8.30242 6.45943 8.41423 6.50145 8.52933 6.49935Z" fill="black"/>
<path d="M13.7887 5.22693C13.7887 5.26105 15.195 4.9003 15.195 4.89543C15.3154 4.86533 15.4194 4.78692 15.4844 4.67732C15.5494 4.56771 15.57 4.43582 15.5419 4.31043C15.528 4.24799 15.5025 4.189 15.4668 4.13682C15.431 4.08464 15.3857 4.04031 15.3335 4.00635C15.2812 3.97239 15.2231 3.94948 15.1623 3.93892C15.1015 3.92836 15.0394 3.93036 14.9794 3.9448L13.6668 4.26655C13.5552 4.29558 13.4577 4.36633 13.3929 4.46532C13.3282 4.5643 13.3007 4.68461 13.3158 4.80329C13.3309 4.92198 13.3874 5.03075 13.4746 5.10888C13.5618 5.187 13.6736 5.22902 13.7887 5.22693Z" fill="black"/>
<path d="M11.159 5.86073C11.159 5.88998 12.5653 5.52923 12.5653 5.52923C12.6254 5.51435 12.6821 5.48727 12.7321 5.44953C12.7821 5.41179 12.8244 5.36413 12.8567 5.30931C12.8889 5.25449 12.9104 5.19359 12.9199 5.13009C12.9294 5.0666 12.9268 5.00178 12.9121 4.93935C12.8832 4.81415 12.8078 4.70594 12.7024 4.63835C12.597 4.57076 12.4702 4.54928 12.3496 4.5786L11.0371 4.89548C10.9193 4.91846 10.8144 4.98751 10.7441 5.08843C10.6737 5.18936 10.6432 5.31449 10.6588 5.4381C10.6744 5.56171 10.7349 5.6744 10.828 5.75301C10.921 5.83162 11.0395 5.87017 11.159 5.86073Z" fill="black"/>
<path d="M26.9419 2.01917C26.9981 2.01917 27.6638 1.85342 27.7341 1.83879C27.8553 1.80906 27.9602 1.73046 28.0257 1.62029C28.0912 1.51013 28.1119 1.37742 28.0833 1.25136C28.0547 1.1253 27.9791 1.01621 27.8732 0.948101C27.7673 0.87999 27.6397 0.858432 27.5185 0.88817L26.8341 1.05879C26.7236 1.08755 26.627 1.15714 26.5622 1.25457C26.4975 1.352 26.4691 1.47061 26.4823 1.58824C26.4955 1.70587 26.5494 1.81448 26.634 1.89378C26.7186 1.97309 26.828 2.01766 26.9419 2.01917Z" fill="black"/>
<path d="M17.5153 18.5161C17.2528 20.4028 18.9216 21.5435 18.9216 23.1766C18.761 23.722 18.4313 24.1968 17.9841 24.527C18.1137 23.2468 17.9893 21.9526 17.6184 20.7245C17.4724 20.1054 17.2165 19.5201 16.8638 18.9988C16.1325 18.0579 15.7997 18.2139 14.8763 17.2584C13.8497 16.22 13.9856 16.1664 13.6013 15.089C13.3434 14.3919 13.2919 13.6606 12.6638 13.0951C12.4421 12.8987 12.1835 12.7526 11.9044 12.6661C11.6888 12.0519 11.0653 11.4376 10.545 11.6326C9.83251 11.9105 10.2731 12.7441 9.90282 13.1536C9.55595 13.4705 9.03563 13.3243 8.75438 13.9531C8.55282 14.3919 8.75438 14.6113 8.70751 14.9281C8.43095 15.1183 8.07001 15.2499 7.9622 15.7276C7.9027 15.9769 7.91081 16.2385 7.98563 16.4833C8.25282 17.1804 9.14813 17.0146 9.74813 17.2438C9.74813 17.2438 9.74813 17.3023 9.78095 17.351C9.7079 17.4958 9.61294 17.6275 9.4997 17.741C8.76845 18.4138 9.05438 19.2864 9.24188 20.1785C9.31845 20.7651 9.51333 21.3283 9.81376 21.8311C9.98735 22.0832 10.0837 22.384 10.0903 22.694C10.0981 23.4042 9.88248 24.0975 9.47626 24.6684C9.27938 24.8536 8.88095 24.8439 8.67938 25.0584C7.9997 25.8043 8.74032 26.3941 9.48095 26.3503C10.3059 26.3015 10.5684 26.1601 11.1591 25.4094C11.1727 25.6244 11.2619 25.8268 11.4097 25.9778C11.5575 26.1289 11.7536 26.2181 11.9606 26.2284H16.7372H16.8731C18.4341 25.8384 19.7653 24.2784 19.8356 23.2693C19.9763 21.5045 18.2747 20.3443 18.4294 18.6478C18.5513 17.5021 18.9544 16.6978 19.5028 16.5418C19.5619 16.5235 19.617 16.4933 19.6649 16.453C19.7127 16.4126 19.7525 16.3628 19.7819 16.3064C19.8113 16.2501 19.8297 16.1882 19.8361 16.1245C19.8425 16.0607 19.8368 15.9963 19.8192 15.9348C19.8017 15.8734 19.7727 15.8161 19.7338 15.7663C19.695 15.7165 19.6472 15.6751 19.593 15.6446C19.5388 15.614 19.4793 15.5949 19.418 15.5882C19.3567 15.5815 19.2947 15.5875 19.2356 15.6058C18.3169 15.8739 17.6841 16.9269 17.5153 18.5161ZM10.9528 23.6836C11.0586 23.2863 11.0836 22.8705 11.0263 22.4626C10.969 22.0547 10.8306 21.6636 10.62 21.3144C10.3218 20.7441 10.1294 20.1207 10.0528 19.4765C9.89813 18.677 9.89345 18.7696 10.1934 18.404C10.3733 18.2554 10.5135 18.0613 10.6005 17.8402C10.6875 17.6191 10.7185 17.3785 10.6903 17.1414C10.672 16.9888 10.6201 16.8426 10.5389 16.7141C10.4576 16.5857 10.349 16.4783 10.2216 16.4004C9.78513 16.2447 9.33424 16.1369 8.87626 16.0786C8.87135 16.0463 8.87135 16.0134 8.87626 15.9811C9.12001 15.8056 9.42938 15.7033 9.56532 15.3425C9.67119 15.0289 9.68586 14.6898 9.60751 14.3675C9.97353 14.2809 10.3113 14.096 10.5872 13.8313C10.8119 13.5782 10.9532 13.2571 10.9903 12.9148C11.0867 13.0959 11.14 13.2984 11.1457 13.5054C11.1514 13.7123 11.1094 13.9177 11.0231 14.1043C10.956 14.2135 10.9333 14.346 10.9602 14.4726C10.987 14.5993 11.0611 14.7096 11.1661 14.7794C11.2712 14.8493 11.3986 14.8728 11.5203 14.8449C11.6421 14.817 11.7482 14.74 11.8153 14.6308C11.9514 14.3858 12.0345 14.113 12.0591 13.8313C12.4528 14.1871 12.5278 14.9281 12.7341 15.4595C12.9403 15.9909 12.8606 15.9519 13.095 16.4394C13.1981 16.9903 14.9231 18.7111 15.495 18.9988C16.2825 19.5253 16.4325 19.9738 16.77 21.0804C16.9481 21.5289 17.6091 24.6196 16.5966 25.2631H13.5638C14.37 24.449 12.7903 23.9566 12.7013 23.1425C12.6769 22.8755 12.7139 22.6063 12.8092 22.3571C12.9046 22.1079 13.0556 21.8858 13.2497 21.7093C13.5593 21.5373 13.8931 21.4172 14.2388 21.3534C14.3142 21.3462 14.3868 21.3202 14.4504 21.2775C14.514 21.2348 14.5667 21.1767 14.604 21.1082C14.6414 21.0396 14.6622 20.9627 14.6647 20.884C14.6672 20.8053 14.6513 20.7272 14.6184 20.6563C14.52 20.4564 14.3372 20.4125 14.1497 20.3345C13.8643 20.1797 13.5462 20.1017 13.2244 20.1077C12.9026 20.1136 12.5874 20.2034 12.3075 20.3686C11.6278 20.8171 11.5247 21.2851 11.0794 23.24C11.0184 23.3911 10.9763 23.5423 10.9341 23.6836H10.9528ZM11.9184 23.7275C12.0238 23.9673 12.1611 24.1905 12.3263 24.3905C12.1007 24.4079 11.8775 24.4504 11.6606 24.5173C11.7529 24.2666 11.8327 24.0111 11.8997 23.7519L11.9184 23.7275Z" fill="black"/>
</svg>
