<svg width="27" height="26" viewBox="0 0 27 26" fill="none" xmlns="http://www.w3.org/2000/svg">
<path d="M13.2094 14.5472H4.5088C4.26926 14.5472 4.07507 14.7457 4.07507 14.9906V22.2618C4.07507 22.5067 4.26926 22.7052 4.5088 22.7052H13.2094C13.4489 22.7052 13.6431 22.5067 13.6431 22.2618V14.9906C13.6431 14.7457 13.4489 14.5472 13.2094 14.5472Z" fill="#F288A4"/>
<path d="M26.0781 10.0826C26.0762 9.99524 26.049 9.91041 26.0001 9.83877L23.3977 6.13665C23.3573 6.07874 23.304 6.03159 23.2421 5.99918C23.1802 5.96678 23.1116 5.95006 23.042 5.95044H18.3317V1.56554C18.3317 1.18808 18.1851 0.826085 17.924 0.559182C17.6628 0.292279 17.3087 0.142334 16.9395 0.142334H10.0605C9.69128 0.142334 9.33715 0.292279 9.07605 0.559182C8.81495 0.826085 8.66827 1.18808 8.66827 1.56554V5.95044H3.95797C3.88916 5.95076 3.82142 5.96782 3.76033 6.0002C3.69924 6.03258 3.64656 6.07935 3.60665 6.13665L1.00428 9.83877C0.953199 9.9146 0.924587 10.0039 0.921875 10.0959V12.7561C0.923329 13.077 1.04051 13.386 1.25098 13.6241C1.46146 13.8622 1.75043 14.0125 2.06258 14.0463V25.4142C2.06258 25.5318 2.10828 25.6446 2.18962 25.7278C2.27096 25.8109 2.38128 25.8576 2.49631 25.8576H24.5037C24.6187 25.8576 24.729 25.8109 24.8104 25.7278C24.8917 25.6446 24.9374 25.5318 24.9374 25.4142V14.0463C25.2496 14.0125 25.5385 13.8622 25.749 13.6241C25.9595 13.386 26.0767 13.077 26.0781 12.7561C26.0781 12.734 26.0781 10.1004 26.0781 10.0826ZM10.8543 2.88234C10.9832 2.85582 11.1165 2.86173 11.2427 2.89958C11.3688 2.93743 11.4841 3.00607 11.5786 3.09959C11.3314 1.70742 12.8537 0.740879 13.5 2.14635C14.1463 0.740879 15.6686 1.70299 15.4214 3.09959C16.1848 2.42124 17.0479 3.30797 16.7833 4.32328C16.6575 5.00163 16.0503 5.61791 15.4127 5.26765C15.6285 5.41764 15.792 5.63403 15.8793 5.88541C15.9666 6.13679 15.9733 6.41008 15.8983 6.6656C15.8234 6.92112 15.6707 7.14557 15.4625 7.30638C15.2543 7.46719 15.0014 7.55598 14.7405 7.55986C14.3067 7.55986 13.9424 7.32044 13.5 7.33374C13.0576 7.34704 12.715 7.55986 12.2769 7.55986C12.0145 7.55971 11.759 7.47359 11.548 7.31416C11.337 7.15472 11.1815 6.93035 11.1044 6.67397C11.0272 6.41758 11.0325 6.14268 11.1194 5.88958C11.2063 5.63648 11.3703 5.41851 11.5873 5.26765C10.247 5.9061 9.59644 3.14836 10.8543 2.88234ZM4.17918 6.83717H8.66827V7.45345C8.66827 7.83091 8.81495 8.19291 9.07605 8.45981C9.33715 8.72672 9.69128 8.87666 10.0605 8.87666H16.9395C17.3087 8.87666 17.6628 8.72672 17.924 8.45981C18.1851 8.19291 18.3317 7.83091 18.3317 7.45345V6.83717H22.8208L24.7986 9.65255H2.22306L4.17918 6.83717ZM19.8151 12.7561C19.8089 12.8646 19.7639 12.967 19.6888 13.0438C19.6136 13.1206 19.5135 13.1666 19.4074 13.1729H18.3881C18.28 13.1729 18.1763 13.129 18.0998 13.0508C18.0234 12.9727 17.9804 12.8667 17.9804 12.7561V10.5393H19.8151V12.7561ZM14.4152 12.7561C14.4152 12.8667 14.3722 12.9727 14.2958 13.0508C14.2193 13.129 14.1156 13.1729 14.0075 13.1729H12.9925C12.8844 13.1729 12.7807 13.129 12.7042 13.0508C12.6278 12.9727 12.5848 12.8667 12.5848 12.7561V10.5393H14.4152V12.7561ZM9.01959 12.7561C9.01959 12.8667 8.97663 12.9727 8.90017 13.0508C8.82371 13.129 8.72001 13.1729 8.61188 13.1729H7.59262C7.48449 13.1729 7.38079 13.129 7.30433 13.0508C7.22787 12.9727 7.18491 12.8667 7.18491 12.7561V10.5393H9.01959V12.7561ZM1.78933 12.7561V10.5393H3.61967V12.7561C3.61967 12.8667 3.57671 12.9727 3.50025 13.0508C3.42379 13.129 3.32009 13.1729 3.21196 13.1729H2.19704C2.08891 13.1729 1.98521 13.129 1.90875 13.0508C1.83229 12.9727 1.78933 12.8667 1.78933 12.7561ZM15.699 24.9709V15.4341H21.7408V24.9709H15.699ZM22.6083 24.9709V14.9907C22.6083 14.8731 22.5626 14.7603 22.4813 14.6772C22.3999 14.594 22.2896 14.5473 22.1746 14.5473H15.2653C15.1502 14.5473 15.0399 14.594 14.9586 14.6772C14.8772 14.7603 14.8315 14.8731 14.8315 14.9907V24.9709H2.93004V14.0596C3.12958 14.0857 3.33223 14.0696 3.52545 14.0124C3.71867 13.9552 3.89836 13.8581 4.05339 13.7271C4.45676 14.1705 5.35458 14.0419 5.91409 14.0596C6.22372 14.0583 6.52191 13.9398 6.75119 13.7271C7.15455 14.1705 8.05237 14.0419 8.61188 14.0596C8.9227 14.0577 9.22206 13.9394 9.45331 13.7271C9.85234 14.1705 10.7545 14.0419 11.3097 14.0596C11.6206 14.0585 11.9203 13.9401 12.1511 13.7271C12.5501 14.1705 13.474 14.0419 14.0075 14.0596C14.3184 14.0585 14.6181 13.9401 14.8489 13.7271C15.2479 14.1705 16.1501 14.0419 16.7053 14.0596C17.0162 14.0585 17.3159 13.9401 17.5467 13.7271C17.9501 14.1705 18.8696 14.0419 19.4074 14.0596C19.7182 14.0577 20.0176 13.9394 20.2488 13.7271C20.6478 14.1705 21.55 14.0419 22.1052 14.0596C22.4161 14.0585 22.7158 13.9401 22.9466 13.7271C23.1016 13.8581 23.2813 13.9552 23.4746 14.0124C23.6678 14.0696 23.8704 14.0857 24.07 14.0596V24.9709H22.6083ZM25.2107 12.7561C25.2107 12.8667 25.1677 12.9727 25.0913 13.0508C25.0148 13.129 24.9111 13.1729 24.803 13.1729H23.788C23.6799 13.1729 23.5762 13.129 23.4997 13.0508C23.4233 12.9727 23.3803 12.8667 23.3803 12.7561V10.5393H25.2107V12.7561Z" fill="#F288A4"/>
</svg>
