<svg width="20" height="21" viewBox="0 0 20 21" fill="none" xmlns="http://www.w3.org/2000/svg">
<g clip-path="url(#clip0_249_5090)">
<path d="M9.57126 8.30877C9.70876 7.89627 10.2913 7.89627 10.4288 8.30877L11.235 10.73C11.4125 11.2623 11.7115 11.7459 12.1083 12.1425C12.5051 12.5391 12.9889 12.8378 13.5213 13.015L15.9413 13.8213C16.3538 13.9588 16.3538 14.5413 15.9413 14.6788L13.52 15.485C12.9878 15.6625 12.5042 15.9615 12.1075 16.3583C11.7109 16.7552 11.4122 17.2389 11.235 17.7713L10.4288 20.1913C10.3991 20.2816 10.3417 20.3603 10.2647 20.416C10.1877 20.4718 10.0951 20.5018 10 20.5018C9.90494 20.5018 9.8123 20.4718 9.73531 20.416C9.65832 20.3603 9.6009 20.2816 9.57126 20.1913L8.76501 17.77C8.58767 17.2379 8.28886 16.7544 7.89225 16.3578C7.49564 15.9612 7.01213 15.6624 6.48001 15.485L4.05876 14.6788C3.96843 14.6491 3.88977 14.5917 3.83401 14.5147C3.77824 14.4377 3.74822 14.3451 3.74822 14.25C3.74822 14.155 3.77824 14.0623 3.83401 13.9853C3.88977 13.9083 3.96843 13.8509 4.05876 13.8213L6.48001 13.015C7.01213 12.8377 7.49564 12.5389 7.89225 12.1423C8.28886 11.7457 8.58767 11.2621 8.76501 10.73L9.57126 8.30877ZM4.74251 1.93502C4.76043 1.88089 4.79496 1.83378 4.84119 1.80039C4.88741 1.76701 4.94298 1.74904 5.00001 1.74904C5.05703 1.74904 5.1126 1.76701 5.15883 1.80039C5.20505 1.83378 5.23958 1.88089 5.25751 1.93502L5.74126 3.38752C5.95751 4.03502 6.46501 4.54252 7.11251 4.75877L8.56501 5.24252C8.61914 5.26045 8.66625 5.29497 8.69963 5.3412C8.73302 5.38743 8.75099 5.443 8.75099 5.50002C8.75099 5.55704 8.73302 5.61262 8.69963 5.65884C8.66625 5.70507 8.61914 5.7396 8.56501 5.75752L7.11251 6.24127C6.79298 6.34732 6.50262 6.52651 6.26456 6.76457C6.02649 7.00263 5.84731 7.29299 5.74126 7.61252L5.25751 9.06502C5.23958 9.11915 5.20505 9.16626 5.15883 9.19965C5.1126 9.23303 5.05703 9.251 5.00001 9.251C4.94298 9.251 4.88741 9.23303 4.84119 9.19965C4.79496 9.16626 4.76043 9.11915 4.74251 9.06502L4.25876 7.61252C4.15271 7.29299 3.97352 7.00263 3.73546 6.76457C3.4974 6.52651 3.20704 6.34732 2.88751 6.24127L1.43501 5.75752C1.38088 5.7396 1.33377 5.70507 1.30038 5.65884C1.26699 5.61262 1.24902 5.55704 1.24902 5.50002C1.24902 5.443 1.26699 5.38743 1.30038 5.3412C1.33377 5.29497 1.38088 5.26045 1.43501 5.24252L2.88751 4.75877C3.20704 4.65272 3.4974 4.47353 3.73546 4.23547C3.97352 3.99741 4.15271 3.70705 4.25876 3.38752L4.74251 1.93502ZM13.5788 0.62377C13.5911 0.588178 13.6142 0.557315 13.6449 0.535472C13.6756 0.513629 13.7123 0.501892 13.75 0.501892C13.7877 0.501892 13.8244 0.513629 13.8551 0.535472C13.8858 0.557315 13.9089 0.588178 13.9213 0.62377L14.2438 1.59127C14.3875 2.02377 14.7263 2.36252 15.1588 2.50627L16.1263 2.82877C16.1618 2.84111 16.1927 2.86423 16.2146 2.89492C16.2364 2.92562 16.2481 2.96235 16.2481 3.00002C16.2481 3.03769 16.2364 3.07443 16.2146 3.10512C16.1927 3.13581 16.1618 3.15893 16.1263 3.17127L15.1588 3.49377C14.9458 3.56502 14.7523 3.68476 14.5935 3.84354C14.4347 4.00233 14.315 4.19582 14.2438 4.40877L13.9213 5.37627C13.9089 5.41186 13.8858 5.44273 13.8551 5.46457C13.8244 5.48641 13.7877 5.49815 13.75 5.49815C13.7123 5.49815 13.6756 5.48641 13.6449 5.46457C13.6142 5.44273 13.5911 5.41186 13.5788 5.37627L13.2563 4.40877C13.185 4.19582 13.0653 4.00233 12.9065 3.84354C12.7477 3.68476 12.5542 3.56502 12.3413 3.49377L11.375 3.17127C11.3394 3.15893 11.3086 3.13581 11.2867 3.10512C11.2649 3.07443 11.2531 3.03769 11.2531 3.00002C11.2531 2.96235 11.2649 2.92562 11.2867 2.89492C11.3086 2.86423 11.3394 2.84111 11.375 2.82877L12.3425 2.50627C12.775 2.36252 13.1138 2.02377 13.2575 1.59127L13.5788 0.62377Z" fill="black"/>
</g>
<defs>
<clipPath id="clip0_249_5090">
<rect width="20" height="20" fill="white" transform="translate(0 0.5)"/>
</clipPath>
</defs>
</svg>
