<svg width="16" height="15" viewBox="0 0 16 15" fill="none" xmlns="http://www.w3.org/2000/svg">
<path d="M2.86612 14.35C2.78812 14.794 3.22612 15.141 3.61212 14.943L8.00212 12.687L12.3911 14.943C12.7771 15.141 13.2151 14.794 13.1371 14.351L12.3071 9.62098L15.8291 6.26498C16.1591 5.95098 15.9891 5.37698 15.5471 5.31498L10.6491 4.61898L8.46512 0.291984C8.42351 0.204273 8.35787 0.130167 8.27583 0.0782765C8.19378 0.0263858 8.0987 -0.00115967 8.00162 -0.00115967C7.90454 -0.00115967 7.80945 0.0263858 7.72741 0.0782765C7.64536 0.130167 7.57972 0.204273 7.53812 0.291984L5.35412 4.61998L0.456118 5.31598C0.0151183 5.37798 -0.155882 5.95198 0.173118 6.26598L3.69612 9.62198L2.86612 14.352V14.35ZM7.77112 11.583L4.08512 13.477L4.77912 9.51998C4.79582 9.42889 4.78968 9.33508 4.76123 9.24695C4.73279 9.15882 4.68293 9.07912 4.61612 9.01498L1.71012 6.24498L5.76212 5.66898C5.84588 5.65591 5.92529 5.62293 5.99367 5.57282C6.06206 5.52271 6.11742 5.45692 6.15512 5.38098L8.00012 1.72298L9.84712 5.38098C9.88482 5.45692 9.94018 5.52271 10.0086 5.57282C10.0769 5.62293 10.1564 5.65591 10.2401 5.66898L14.2921 6.24398L11.3861 9.01398C11.3192 9.07822 11.2692 9.15809 11.2407 9.24641C11.2123 9.33473 11.2062 9.42874 11.2231 9.51998L11.9171 13.477L8.23112 11.583C8.15991 11.546 8.08086 11.5267 8.00062 11.5267C7.92038 11.5267 7.84232 11.546 7.77112 11.583Z" fill="black"/>
</svg>
