<svg width="85" height="59" viewBox="0 0 85 59" fill="none" xmlns="http://www.w3.org/2000/svg">
<path fill-rule="evenodd" clip-rule="evenodd" d="M68.5231 0.726902C64.8588 1.51847 61.0445 4.21543 58.8138 7.59201C58.0012 8.82203 57.8652 9.47047 58.222 10.4111C58.5733 11.3371 59.3677 11.8738 60.387 11.8738C61.3701 11.8738 61.92 11.5238 62.6944 10.4058C64.3946 7.95088 66.7274 6.18528 69.0816 5.57133C70.8141 5.11942 72.281 5.36935 72.5825 6.16788C73.0602 7.4324 72.1889 10.0849 70.4103 12.78C69.8753 13.5908 69.8433 13.7032 69.9048 14.5579C69.9586 15.3081 70.0486 15.554 70.4117 15.9425C71.2542 16.8444 72.2064 17.0414 73.2544 16.5306C74.1784 16.0805 75.7834 13.5097 76.7492 10.933C78.3993 6.53023 77.3521 2.82157 74.009 1.23026C72.4291 0.478175 70.4957 0.300859 68.5231 0.726902ZM10.8172 2.54681C8.3325 3.21932 6.36004 5.44833 5.83228 8.18039C5.60906 9.33492 5.7227 11.4184 6.07309 12.5953C6.78168 14.9764 8.5452 17.563 10.7773 19.4954C12.4854 20.9741 13.3383 21.4289 14.2162 21.3292C15.436 21.1909 16.3636 20.1691 16.3626 18.9651C16.3618 18.0053 15.9993 17.4809 14.5897 16.4009C12.5269 14.8204 11.1759 13.039 10.7326 11.3154C9.95036 8.27238 11.4695 6.39543 13.8333 7.48459C14.9331 7.99143 16.2676 9.27576 17.4734 10.988C18.0272 11.7742 18.659 12.5354 18.8774 12.6794C19.5111 13.0973 20.4216 13.1325 21.1342 12.7667C22.0536 12.2947 22.451 11.6425 22.451 10.6062C22.451 9.81134 22.388 9.65838 21.5491 8.41399C18.4267 3.78228 14.3952 1.57838 10.8172 2.54681ZM40.489 9.17787C39.9417 9.42267 39.4351 9.95689 39.2277 10.5081C39.0108 11.0843 38.6052 15.6306 38.5669 17.9145C38.538 19.6412 38.5654 19.871 38.8448 20.2502C39.4309 21.0455 39.9127 21.2947 40.8648 21.2947C41.8109 21.2947 42.2961 21.0466 42.8741 20.2674C43.1268 19.9268 43.2034 19.4324 43.3655 17.0995C43.471 15.5791 43.6359 13.6114 43.7318 12.7266C43.9305 10.8928 43.8221 10.3215 43.1537 9.67972C42.4129 8.96848 41.3884 8.77543 40.489 9.17787ZM30.9439 10.6385C30.1138 10.9889 29.7444 11.5555 29.1762 13.3484C28.7126 14.8115 28.623 15.3104 28.6189 16.4533C28.6131 18.0591 28.8779 18.6667 29.8249 19.2206C31.4207 20.1541 33.349 18.9419 33.349 17.0054C33.349 16.4882 33.5289 15.5858 33.8166 14.6596C34.4621 12.5821 34.3181 11.7494 33.163 10.8814C32.7067 10.5386 31.495 10.4059 30.9439 10.6385ZM50.1018 10.9842C49.4928 11.2624 48.8654 12.0334 48.7516 12.6434C48.7011 12.9147 48.6814 14.2356 48.708 15.5788C48.7513 17.7652 48.7889 18.0646 49.0664 18.4381C49.6559 19.2317 50.136 19.4792 51.0863 19.4792C52.0369 19.4792 52.5173 19.2313 53.1063 18.4375C53.3937 18.05 53.4162 17.8122 53.4162 15.1673C53.4162 12.0464 53.3844 11.9211 52.4036 11.184C51.906 10.8102 50.7102 10.7064 50.1018 10.9842ZM50.8117 32.7177C49.4198 32.9156 48.9003 33.1283 48.3955 33.7068C47.3197 34.94 47.7231 36.7642 49.231 37.4842C49.7338 37.7244 49.9259 37.731 51.3411 37.5552C52.4341 37.4194 53.423 37.4001 54.6603 37.4902C57.4733 37.6952 57.9251 37.675 58.3941 37.3225C59.1828 36.7297 59.4289 36.2462 59.4289 35.2894C59.4289 33.925 58.7074 33.1247 57.2462 32.8681C56.0445 32.6569 51.9173 32.5605 50.8117 32.7177ZM32.9147 33.1741C30.722 33.5136 28.9313 33.8716 27.9324 34.1703C26.0992 34.7182 25.5399 36.8931 26.898 38.1933C27.6966 38.9581 28.2514 39.0377 29.9871 38.6364C30.7613 38.4575 32.5016 38.149 33.8548 37.9511C35.2078 37.7532 36.4565 37.5149 36.6296 37.4217C37.1723 37.1294 37.7411 36.2325 37.8177 35.5485C37.9133 34.6949 37.5808 33.9249 36.8865 33.3918C36.1692 32.8411 35.3542 32.7965 32.9147 33.1741ZM75.8886 35.2848C73.4497 36.1107 70.952 36.9432 70.3382 37.1349C69.4424 37.4143 69.1347 37.593 68.7801 38.0391C67.9227 39.1183 68.1091 40.5903 69.2099 41.4346C70.2362 42.222 70.8131 42.118 76.9324 40.0448C82.0269 38.3186 82.2793 38.2152 82.6991 37.6836C83.896 36.1678 82.9421 33.9662 81.0306 33.8327C80.4537 33.7925 79.5033 34.0609 75.8886 35.2848ZM1.39914 38.2157C0.397879 38.6761 -0.168213 39.8253 0.0444852 40.9661C0.169699 41.6377 0.898735 42.4851 1.52691 42.6895C1.79147 42.7754 3.66516 43.0191 5.69068 43.2308C10.0365 43.6851 12.5528 44.087 14.3659 44.6162C16.2614 45.1695 17.088 44.9929 17.9322 43.8549C18.3667 43.2691 18.3667 41.8339 17.9322 41.2481C17.4016 40.5328 16.9447 40.3002 15.1606 39.8373C12.8372 39.2342 11.2441 38.9732 7.21339 38.5349C2.20604 37.9903 1.92314 37.9748 1.39914 38.2157ZM42.4562 42.5551C40.6186 43.0244 38.03 44.1944 37.3785 44.8501C36.4249 45.8099 36.4241 47.0432 37.3762 48.2371C38.5767 49.7426 38.9885 50.1009 39.6391 50.2056C40.2401 50.3024 40.2635 50.3269 40.2635 50.8624C40.2635 51.629 39.5603 52.7066 38.8182 53.0773C37.9114 53.5303 35.8571 53.4652 34.4581 52.9393C32.5275 52.2134 31.2817 52.4956 30.6539 53.8006C30.2905 54.5563 30.2625 55.0813 30.5496 55.7567C30.8901 56.5578 31.5572 57.0533 32.9258 57.5219C36.1857 58.6378 39.2572 58.4776 41.5118 57.0739L42.2337 56.6242L43.0149 57.2165C44.3386 58.2201 45.1971 58.4895 47.1029 58.4997C49.0091 58.5098 49.8784 58.2954 51.7937 57.3435C53.1693 56.6596 55.2085 55.1119 55.7609 54.3324C56.2466 53.6471 56.2702 52.3065 55.8075 51.678C55.2743 50.9539 54.5762 50.5701 53.792 50.5701C53.0397 50.5701 52.9238 50.6341 51.2469 51.976C50.0469 52.9364 48.601 53.6045 47.5065 53.7044C46.3384 53.8111 45.7839 53.5251 45.4681 52.6535C45.158 51.7976 45.1497 51.7058 45.2834 50.6322C45.3953 49.7342 45.4146 49.7028 46.0461 49.3942C47.5064 48.6801 48.4919 47.3809 48.6354 45.9807C48.7044 45.3081 48.6517 45.0099 48.344 44.3334C47.5157 42.5124 45.2743 41.8356 42.4562 42.5551ZM72.9831 45.4503C71.0666 45.607 70.5118 45.8075 69.9523 46.5456C69.1322 47.628 69.33 49.0763 70.4118 49.9071C70.8997 50.2818 71.0973 50.3384 71.8182 50.3098C72.2793 50.2915 75.0581 50.2513 77.993 50.2203C83.8904 50.1579 83.9402 50.1502 84.6327 49.1729C85.105 48.5064 85.1255 47.1538 84.6728 46.5434C84.0419 45.6928 83.6666 45.5323 82.0182 45.4082C80.0148 45.2572 75.0605 45.2802 72.9831 45.4503ZM14.0333 48.0766C5.23928 50.1308 2.04204 51.0333 1.3796 51.6479C0.269358 52.6779 0.342864 54.414 1.53533 55.3295C2.36477 55.9663 2.95762 55.9696 4.9851 55.3494C7.27788 54.648 9.35029 54.1259 14.3004 53.0026C16.5142 52.5003 18.4562 52.0188 18.6158 51.9328C19.1365 51.6524 19.7044 50.7446 19.7797 50.0728C19.9311 48.7212 18.9456 47.5389 17.597 47.454C17.1513 47.4259 15.8318 47.6564 14.0333 48.0766Z" fill="white"/>
</svg>
