<svg width="34" height="34" viewBox="0 0 34 34" fill="none" xmlns="http://www.w3.org/2000/svg">
<path d="M12.5566 19.6091C12.7611 18.4182 12.2573 17.3379 11.4313 17.196C10.6053 17.0542 9.76995 17.9046 9.56546 19.0955C9.36096 20.2863 9.86479 21.3667 10.6908 21.5085C11.5168 21.6504 12.3521 20.8 12.5566 19.6091Z" fill="black"/>
<path d="M23.2405 21.563C24.0626 21.4209 24.5631 20.3449 24.3584 19.1596C24.1536 17.9742 23.3212 17.1284 22.499 17.2705C21.6769 17.4125 21.1764 18.4885 21.3811 19.6738C21.5858 20.8592 22.4183 21.705 23.2405 21.563Z" fill="black"/>
<path d="M16.9179 20.392C15.8961 20.3702 14.8807 20.5585 13.9347 20.9451C12.9886 21.3317 12.1319 21.9085 11.4179 22.6397C11.3341 22.7439 11.2931 22.8761 11.303 23.0094C11.3129 23.1427 11.373 23.2674 11.4712 23.3581C11.5693 23.4489 11.6983 23.499 11.832 23.4983C11.9657 23.4977 12.0942 23.4464 12.1915 23.3547C12.8966 22.6171 13.781 22.0751 14.7582 21.7817C14.9108 22.1189 15.1384 22.4169 15.4238 22.6526C15.7091 22.8884 16.0446 23.0558 16.4046 23.142V24.9754C15.8143 25.7087 15.1982 26.1084 14.5712 26.1341H14.5016C13.8786 26.0862 13.2962 25.8062 12.8699 25.3494C12.8254 25.2939 12.7701 25.248 12.7074 25.2144C12.6447 25.1809 12.5759 25.1603 12.505 25.154C12.4342 25.1477 12.3628 25.1557 12.2951 25.1777C12.2275 25.1996 12.165 25.235 12.1113 25.2817C12.0577 25.3285 12.014 25.3855 11.983 25.4495C11.952 25.5135 11.9342 25.5831 11.9307 25.6542C11.9273 25.7252 11.9382 25.7962 11.9628 25.8629C11.9875 25.9296 12.0254 25.9907 12.0742 26.0424C12.1182 26.0901 13.1412 27.2341 14.6006 27.1864C15.0483 27.149 15.484 27.0224 15.882 26.8139C16.28 26.6055 16.6322 26.3195 16.9179 25.9727C17.2059 26.3187 17.5603 26.6034 17.9603 26.81C18.3602 27.0166 18.7975 27.1408 19.2463 27.1754H19.3453C20.2731 27.1268 21.1447 26.716 21.7727 26.0314C21.858 25.9251 21.8989 25.7898 21.8868 25.654C21.8747 25.5182 21.8105 25.3923 21.7077 25.3027C21.6049 25.2132 21.4714 25.1669 21.3352 25.1735C21.199 25.1802 21.0706 25.2393 20.977 25.3384C20.5366 25.8114 19.9285 26.0931 19.283 26.1231C18.656 26.0974 18.0363 25.7051 17.4496 24.9644V23.131C17.8096 23.0448 18.1451 22.8774 18.4304 22.6416C18.7158 22.4059 18.9434 22.1079 19.096 21.7707C20.0732 22.0641 20.9576 22.6061 21.6627 23.3437C21.7573 23.4427 21.8866 23.5011 22.0234 23.5066C22.1602 23.5121 22.2938 23.4642 22.396 23.373C22.4951 23.2785 22.5535 23.1491 22.5589 23.0123C22.5644 22.8755 22.5165 22.7419 22.4254 22.6397C21.7104 21.9076 20.8526 21.3303 19.9052 20.9436C18.9578 20.557 17.941 20.3692 16.9179 20.392Z" fill="black"/>
<path d="M31.9808 27.2049C32.7927 26.1301 33.2362 24.8221 33.2454 23.4751C33.2547 22.1282 32.8292 20.8142 32.0321 19.7284C31.903 17.3385 31.2628 15.0041 30.1548 12.8826C31.7938 5.50519 29.2014 0.782456 29.0547 0.562453C28.974 0.420609 28.8464 0.311237 28.6939 0.253046C28.5414 0.194855 28.3735 0.191462 28.2187 0.243448C25.2854 1.23346 23.0853 3.4445 21.5856 5.42453C18.5509 4.38332 15.2556 4.38332 12.2208 5.42453C10.7431 3.4445 8.52844 1.23346 5.60239 0.243448C5.44642 0.19239 5.27752 0.197424 5.12487 0.25768C4.97222 0.317937 4.84542 0.429629 4.76638 0.573453C4.63438 0.808124 2.042 5.51619 3.66636 12.8936C2.56496 15.0129 1.92984 17.3434 1.80367 19.7284C1.00721 20.8143 0.581752 22.1279 0.590337 23.4745C0.598923 24.8212 1.04109 26.1292 1.85134 27.2049C1.11127 27.9665 0.668929 28.9682 0.60465 30.0282C0.60465 30.1236 0.60465 30.2189 0.60465 30.3142C0.60465 31.7479 1.65333 32.9176 2.94769 32.9176C3.29541 32.9164 3.63766 32.8309 3.94503 32.6683C4.33892 33.0158 4.84612 33.2075 5.37139 33.2075C5.89665 33.2075 6.40385 33.0158 6.79774 32.6683C7.10658 32.8305 7.44992 32.916 7.79876 32.9176C8.11845 32.9116 8.433 32.836 8.7205 32.6961C9.00799 32.5561 9.26153 32.3552 9.46345 32.1073C11.8795 32.8436 14.3921 33.2144 16.9179 33.2073C19.4435 33.2126 21.9559 32.8418 24.3723 32.1073C24.5773 32.3544 24.8338 32.5537 25.1239 32.6911C25.414 32.8286 25.7307 32.9009 26.0517 32.9029C26.4005 32.9013 26.7439 32.8158 27.0527 32.6536C27.4466 33.0011 27.9538 33.1929 28.4791 33.1929C29.0043 33.1929 29.5115 33.0011 29.9054 32.6536C30.2128 32.8162 30.555 32.9018 30.9028 32.9029C32.1971 32.9029 33.2458 31.7333 33.2458 30.2996C33.2514 30.2092 33.2514 30.1186 33.2458 30.0282C33.1712 28.9672 32.723 27.9668 31.9808 27.2049ZM28.1014 1.79447C28.6294 3.04116 29.7331 6.37421 29.0474 11.0713C28.8091 10.7339 28.5597 10.4039 28.3141 10.0886C28.6357 7.96296 28.424 5.79072 27.6981 3.76717C27.646 3.64537 27.5497 3.5478 27.4286 3.49406C27.3076 3.44033 27.1706 3.43441 27.0454 3.4775C25.5787 3.96517 24.42 5.10552 23.5437 6.24587C23.3603 6.15054 23.177 6.05887 22.9827 5.97453C24.2147 4.38318 25.938 2.69649 28.1014 1.79447ZM5.73439 1.79447C7.89776 2.69649 9.62112 4.38318 10.8678 5.97453C10.6771 6.05887 10.5011 6.15054 10.3068 6.24587C9.43045 5.10552 8.25343 3.96517 6.80508 3.4775C6.67981 3.43441 6.54289 3.44033 6.42181 3.49406C6.30073 3.5478 6.20448 3.64537 6.1524 3.76717C5.42588 5.79709 5.21915 7.97661 5.55106 10.1069C5.29072 10.4223 5.04505 10.7486 4.81771 11.0823C4.1027 6.37421 5.21005 3.03749 5.73439 1.79447ZM7.78409 31.5133C7.67179 31.5101 7.56136 31.4836 7.45976 31.4357C7.35816 31.3877 7.26759 31.3193 7.19375 31.2346C7.12124 31.1546 7.03122 31.0925 6.93072 31.053C6.83022 31.0136 6.72196 30.9979 6.61441 31.0072C6.5079 31.0164 6.40503 31.0504 6.31398 31.1064C6.22294 31.1624 6.14626 31.239 6.09007 31.3299C6.01762 31.463 5.91205 31.5751 5.78358 31.6554C5.6551 31.7357 5.50807 31.7814 5.35672 31.7883C5.20528 31.7818 5.05811 31.7362 4.92957 31.6558C4.80104 31.5755 4.69554 31.4632 4.62338 31.3299C4.56754 31.2394 4.49144 31.1632 4.40107 31.1072C4.31071 31.0512 4.20856 31.017 4.1027 31.0072H4.03303C3.93787 31.007 3.84364 31.026 3.75604 31.0632C3.66844 31.1004 3.58928 31.1549 3.52336 31.2236C3.44952 31.3083 3.35895 31.3767 3.25735 31.4247C3.15575 31.4726 3.04532 31.4991 2.93302 31.5023C2.42334 31.5023 1.99434 30.9522 1.99434 30.3032C1.99434 30.2519 1.99434 30.2042 1.99434 30.1272C2.06583 29.2929 2.45183 28.5169 3.07413 27.9566C3.69643 27.3962 4.50848 27.0934 5.34572 27.1095C6.18359 27.0925 6.99656 27.3949 7.61964 27.9553C8.24272 28.5157 8.62925 29.2922 8.70077 30.1272C8.6992 30.1369 8.6992 30.1469 8.70077 30.1566C8.70077 30.2042 8.70077 30.2519 8.70077 30.3032C8.72277 30.9632 8.29377 31.5133 7.78409 31.5133ZM16.9179 31.8029C14.6035 31.8125 12.2992 31.4978 10.0721 30.8679C10.1073 30.6854 10.1257 30.5001 10.1271 30.3142C10.1271 30.2226 10.1271 30.1309 10.1271 30.0429C10.0339 28.85 9.48847 27.7377 8.60247 26.9335C7.71646 26.1293 6.55675 25.6938 5.36039 25.7162C4.50891 25.7165 3.67224 25.9389 2.93302 26.3615C2.30189 25.4845 1.97341 24.4258 1.99723 23.3455C2.02104 22.2653 2.39586 21.2221 3.06502 20.3738C3.14283 20.2665 3.1886 20.1393 3.19702 20.0071C3.54169 12.186 9.56612 6.07354 16.9179 6.07354C24.2697 6.07354 30.2941 12.175 30.6388 20.0071C30.6472 20.1393 30.693 20.2665 30.7708 20.3738C31.4414 21.2209 31.8168 22.264 31.84 23.3442C31.8631 24.4245 31.5328 25.4827 30.8991 26.3578C30.1622 25.9365 29.3279 25.7153 28.4791 25.7162C27.2851 25.6936 26.1273 26.127 25.2417 26.9281C24.3561 27.7293 23.8091 28.8379 23.7123 30.0282C23.7123 30.1236 23.7123 30.2189 23.7123 30.3142C23.7137 30.5001 23.7322 30.6854 23.7673 30.8679C21.5391 31.4981 19.2335 31.8129 16.9179 31.8029ZM30.9028 31.5133C30.7905 31.5101 30.68 31.4836 30.5784 31.4357C30.4768 31.3877 30.3863 31.3193 30.3124 31.2346C30.242 31.1569 30.155 31.0962 30.0579 31.0568C29.9608 31.0174 29.856 31.0005 29.7514 31.0072C29.6449 31.0164 29.542 31.0504 29.451 31.1064C29.36 31.1624 29.2833 31.239 29.2271 31.3299C29.1549 31.4632 29.0494 31.5755 28.9209 31.6558C28.7923 31.7362 28.6452 31.7818 28.4937 31.7883C28.3428 31.7815 28.1962 31.7361 28.0678 31.6565C27.9394 31.5769 27.8336 31.4657 27.7604 31.3336C27.7034 31.2399 27.6247 31.1612 27.5308 31.1044C27.437 31.0476 27.3308 31.0143 27.2214 31.0072H27.1517C27.0566 31.007 26.9623 31.026 26.8747 31.0632C26.7871 31.1004 26.708 31.1549 26.642 31.2236C26.5682 31.3083 26.4776 31.3767 26.376 31.4247C26.2744 31.4726 26.164 31.4991 26.0517 31.5023C25.542 31.5023 25.113 30.9522 25.113 30.3032C25.113 30.2519 25.113 30.2042 25.113 30.1272C25.2037 29.3013 25.5961 28.5379 26.2149 27.9834C26.8337 27.4288 27.6353 27.1222 28.4662 27.1222C29.2971 27.1222 30.0988 27.4288 30.7176 27.9834C31.3364 28.5379 31.7287 29.3013 31.8195 30.1272C31.8179 30.1369 31.8179 30.1469 31.8195 30.1566C31.8195 30.2042 31.8195 30.2519 31.8195 30.3032C31.8415 30.9632 31.4124 31.5133 30.9028 31.5133Z" fill="black"/>
</svg>
