<svg width="22" height="22" viewBox="0 0 22 22" fill="none" xmlns="http://www.w3.org/2000/svg">
<g clip-path="url(#clip0_520_901)">
<path d="M8.93751 6.16269C11.2255 3.86232 16.9469 7.88694 8.93751 13.0624C0.928135 7.88694 6.64951 3.86369 8.93751 6.16269Z" fill="white" fill-opacity="0.5"/>
<path d="M17.875 8.93744C17.8781 10.8389 17.2719 12.6912 16.1453 14.2229C16.2003 14.2633 16.253 14.3082 16.3034 14.3577L21.5971 19.6514C21.8551 19.9093 22.0002 20.259 22.0003 20.6238C22.0004 20.9885 21.8556 21.3384 21.5978 21.5964C21.34 21.8544 20.9902 21.9994 20.6255 21.9995C20.2607 21.9997 19.9109 21.8549 19.6529 21.5971L14.3591 16.3033C14.3093 16.2542 14.2634 16.2013 14.2216 16.1452H14.2244C12.6044 17.3337 10.6311 17.9417 8.62315 17.8711C6.61515 17.8004 4.68954 17.0552 3.15711 15.7557C1.62467 14.4562 0.574808 12.6782 0.176966 10.7088C-0.220875 8.73932 0.0565125 6.69325 0.964361 4.9008C1.87221 3.10836 3.35755 1.67411 5.18066 0.829531C7.00378 -0.015046 9.05829 -0.220675 11.0126 0.245832C12.967 0.712339 14.7071 1.82377 15.9522 3.40073C17.1973 4.9777 17.8746 6.9282 17.875 8.93744ZM8.93751 16.4999C9.93063 16.4999 10.914 16.3043 11.8316 15.9243C12.7491 15.5442 13.5828 14.9872 14.285 14.2849C14.9872 13.5827 15.5443 12.749 15.9243 11.8315C16.3044 10.914 16.5 9.93057 16.5 8.93744C16.5 7.94432 16.3044 6.96093 15.9243 6.0434C15.5443 5.12588 14.9872 4.29219 14.285 3.58995C13.5828 2.8877 12.7491 2.33066 11.8316 1.9506C10.914 1.57055 9.93063 1.37494 8.93751 1.37494C6.93181 1.37494 5.00826 2.1717 3.59002 3.58995C2.17177 5.00819 1.37501 6.93174 1.37501 8.93744C1.37501 10.9431 2.17177 12.8667 3.59002 14.2849C5.00826 15.7032 6.93181 16.4999 8.93751 16.4999Z" fill="white" fill-opacity="0.5"/>
</g>
<defs>
<clipPath id="clip0_520_901">
<rect width="22" height="22" fill="white"/>
</clipPath>
</defs>
</svg>
