<svg width="22" height="22" viewBox="0 0 22 22" fill="none" xmlns="http://www.w3.org/2000/svg">
<g clip-path="url(#clip0_519_1518)">
<path d="M8.93751 6.16275C11.2255 3.86237 16.9469 7.887 8.93751 13.0625C0.928135 7.887 6.64951 3.86375 8.93751 6.16275Z" fill="white"/>
<path d="M17.875 8.9375C17.8781 10.8389 17.2719 12.6913 16.1453 14.223C16.2003 14.2633 16.253 14.3083 16.3034 14.3578L21.5971 19.6515C21.8551 19.9093 22.0002 20.2591 22.0003 20.6238C22.0004 20.9886 21.8556 21.3384 21.5978 21.5964C21.34 21.8544 20.9902 21.9995 20.6255 21.9996C20.2607 21.9997 19.9109 21.8549 19.6529 21.5971L14.3591 16.3034C14.3093 16.2542 14.2634 16.2014 14.2216 16.1453H14.2244C12.6044 17.3338 10.6311 17.9418 8.62315 17.8711C6.61515 17.8005 4.68954 17.0552 3.15711 15.7557C1.62467 14.4562 0.574808 12.6783 0.176966 10.7088C-0.220875 8.73937 0.0565125 6.69331 0.964361 4.90086C1.87221 3.10842 3.35755 1.67417 5.18066 0.829588C7.00378 -0.0149889 9.05829 -0.220618 11.0126 0.245889C12.967 0.712396 14.7071 1.82382 15.9522 3.40079C17.1973 4.97776 17.8746 6.92826 17.875 8.9375ZM8.93751 16.5C9.93063 16.5 10.914 16.3044 11.8316 15.9243C12.7491 15.5443 13.5828 14.9872 14.285 14.285C14.9872 13.5828 15.5443 12.7491 15.9243 11.8315C16.3044 10.914 16.5 9.93062 16.5 8.9375C16.5 7.94438 16.3044 6.96098 15.9243 6.04346C15.5443 5.12593 14.9872 4.29225 14.285 3.59C13.5828 2.88776 12.7491 2.33071 11.8316 1.95066C10.914 1.57061 9.93063 1.375 8.93751 1.375C6.93181 1.375 5.00826 2.17176 3.59002 3.59001C2.17177 5.00825 1.37501 6.9318 1.37501 8.9375C1.37501 10.9432 2.17177 12.8668 3.59002 14.285C5.00826 15.7032 6.93181 16.5 8.93751 16.5Z" fill="white"/>
</g>
<defs>
<clipPath id="clip0_519_1518">
<rect width="22" height="22" fill="white"/>
</clipPath>
</defs>
</svg>
