<svg width="22" height="22" viewBox="0 0 22 22" fill="none" xmlns="http://www.w3.org/2000/svg">
<path fill-rule="evenodd" clip-rule="evenodd" d="M2.75 2.75C2.75 2.02065 3.03973 1.32118 3.55546 0.805456C4.07118 0.289731 4.77065 0 5.5 0L16.5 0C17.2293 0 17.9288 0.289731 18.4445 0.805456C18.9603 1.32118 19.25 2.02065 19.25 2.75V4.30787L20.5439 4.99813C20.9838 5.23268 21.3516 5.58239 21.6081 6.00986C21.8646 6.43733 22 6.92649 22 7.425V19.25C22 19.9793 21.7103 20.6788 21.1945 21.1945C20.6788 21.7103 19.9793 22 19.25 22H2.75C2.02065 22 1.32118 21.7103 0.805456 21.1945C0.289731 20.6788 1.37554e-08 19.9793 1.37554e-08 19.25V7.425C-4.98392e-05 6.92649 0.135411 6.43733 0.391894 6.00986C0.648378 5.58239 1.01624 5.23268 1.45613 4.99813L2.75 4.30787V2.75ZM2.75 5.86713L2.10375 6.21088C1.88357 6.32811 1.69944 6.50304 1.57106 6.71691C1.44269 6.93079 1.37492 7.17556 1.375 7.425V8.54838L2.75 9.37337V5.86713ZM4.125 10.1984L9.28125 13.2921L11 12.2609L12.7188 13.2921L17.875 10.1984V2.75C17.875 2.38533 17.7301 2.03559 17.4723 1.77773C17.2144 1.51987 16.8647 1.375 16.5 1.375H5.5C5.13533 1.375 4.78559 1.51987 4.52773 1.77773C4.26987 2.03559 4.125 2.38533 4.125 2.75V10.1984ZM19.25 9.37337L20.625 8.54838V7.425C20.6248 7.17579 20.5569 6.93131 20.4286 6.7177C20.3002 6.50409 20.1162 6.32938 19.8962 6.21225L19.25 5.86713V9.37337ZM11 4.10025C13.288 1.79988 19.0094 5.8245 11 11C2.99063 5.8245 8.712 1.80125 11 4.10025ZM20.625 10.1516L14.0553 14.0938L20.625 18.0359V10.1516ZM20.5769 19.6116L11 13.8628L1.42312 19.6103C1.50222 19.9016 1.675 20.1588 1.91481 20.3422C2.15461 20.5256 2.44811 20.625 2.75 20.625H19.25C19.5519 20.625 19.8454 20.5256 20.0852 20.3422C20.325 20.1588 20.4978 19.903 20.5769 19.6116ZM1.375 18.0345L7.94475 14.0924L1.375 10.1516V18.0345Z" fill="white" fill-opacity="0.5"/>
</svg>
