<svg width="85" height="58" viewBox="0 0 85 58" fill="none" xmlns="http://www.w3.org/2000/svg">
<path fill-rule="evenodd" clip-rule="evenodd" d="M68.5231 0.226902C64.8588 1.01847 61.0445 3.71543 58.8138 7.09201C58.0012 8.32203 57.8652 8.97047 58.222 9.91107C58.5733 10.8371 59.3677 11.3738 60.387 11.3738C61.3701 11.3738 61.92 11.0238 62.6944 9.90578C64.3946 7.45088 66.7274 5.68528 69.0816 5.07133C70.8141 4.61942 72.281 4.86935 72.5825 5.66788C73.0602 6.9324 72.1888 9.58488 70.4103 12.28C69.8753 13.0908 69.8433 13.2032 69.9048 14.0579C69.9586 14.8081 70.0486 15.054 70.4117 15.4425C71.2542 16.3444 72.2064 16.5414 73.2544 16.0306C74.1784 15.5805 75.7834 13.0097 76.7492 10.433C78.3993 6.03023 77.3521 2.32157 74.009 0.730256C72.4291 -0.0218253 70.4957 -0.199141 68.5231 0.226902ZM10.8172 2.04681C8.3325 2.71932 6.36004 4.94833 5.83228 7.68039C5.60906 8.83492 5.7227 10.9184 6.07309 12.0953C6.78168 14.4764 8.5452 17.063 10.7773 18.9954C12.4854 20.4741 13.3383 20.9289 14.2162 20.8292C15.436 20.6909 16.3636 19.6691 16.3626 18.4651C16.3618 17.5053 15.9993 16.9809 14.5897 15.9009C12.5269 14.3204 11.1759 12.539 10.7326 10.8154C9.95036 7.77238 11.4695 5.89543 13.8333 6.98459C14.9331 7.49143 16.2676 8.77576 17.4734 10.488C18.0272 11.2742 18.659 12.0354 18.8774 12.1794C19.5111 12.5973 20.4216 12.6325 21.1342 12.2667C22.0536 11.7947 22.451 11.1424 22.451 10.1062C22.451 9.31134 22.388 9.15838 21.5491 7.91399C18.4267 3.28228 14.3952 1.07838 10.8172 2.04681ZM40.489 8.67787C39.9417 8.92267 39.4351 9.45689 39.2277 10.0081C39.0108 10.5843 38.6052 15.1306 38.5669 17.4145C38.538 19.1412 38.5654 19.371 38.8448 19.7502C39.4309 20.5455 39.9127 20.7947 40.8648 20.7947C41.8109 20.7947 42.2961 20.5466 42.8741 19.7674C43.1268 19.4268 43.2034 18.9324 43.3655 16.5995C43.471 15.0791 43.6359 13.1114 43.7318 12.2266C43.9305 10.3928 43.8221 9.8215 43.1537 9.17972C42.4129 8.46848 41.3884 8.27543 40.489 8.67787ZM30.9439 10.1385C30.1138 10.4889 29.7444 11.0555 29.1762 12.8484C28.7126 14.3115 28.623 14.8104 28.6189 15.9533C28.6131 17.5591 28.8779 18.1667 29.8249 18.7206C31.4207 19.6541 33.349 18.4419 33.349 16.5054C33.349 15.9882 33.5289 15.0858 33.8166 14.1596C34.4621 12.0821 34.3181 11.2494 33.163 10.3814C32.7067 10.0386 31.495 9.90593 30.9439 10.1385ZM50.1018 10.4842C49.4928 10.7624 48.8654 11.5334 48.7516 12.1434C48.7011 12.4147 48.6814 13.7356 48.708 15.0788C48.7513 17.2652 48.7889 17.5646 49.0664 17.9381C49.6559 18.7317 50.136 18.9792 51.0863 18.9792C52.0369 18.9792 52.5173 18.7313 53.1063 17.9375C53.3937 17.55 53.4162 17.3122 53.4162 14.6673C53.4162 11.5464 53.3844 11.4211 52.4036 10.684C51.906 10.3102 50.7102 10.2064 50.1018 10.4842ZM50.8117 32.2177C49.4198 32.4156 48.9003 32.6283 48.3955 33.2068C47.3197 34.44 47.7231 36.2642 49.231 36.9842C49.7338 37.2244 49.9259 37.231 51.3411 37.0552C52.4341 36.9194 53.423 36.9001 54.6603 36.9902C57.4733 37.1952 57.9251 37.175 58.3941 36.8225C59.1828 36.2297 59.4289 35.7462 59.4289 34.7894C59.4289 33.425 58.7074 32.6247 57.2462 32.3681C56.0445 32.1569 51.9173 32.0605 50.8117 32.2177ZM32.9147 32.6741C30.722 33.0136 28.9313 33.3716 27.9324 33.6703C26.0992 34.2182 25.5399 36.3931 26.898 37.6933C27.6966 38.4581 28.2514 38.5377 29.9871 38.1364C30.7613 37.9575 32.5016 37.649 33.8548 37.4511C35.2078 37.2532 36.4565 37.0149 36.6296 36.9217C37.1723 36.6294 37.7411 35.7325 37.8177 35.0485C37.9133 34.1949 37.5808 33.4249 36.8865 32.8918C36.1692 32.3411 35.3542 32.2965 32.9147 32.6741ZM75.8886 34.7848C73.4497 35.6107 70.952 36.4432 70.3382 36.6349C69.4424 36.9143 69.1347 37.093 68.7801 37.5391C67.9227 38.6183 68.1091 40.0903 69.2099 40.9346C70.2362 41.722 70.8131 41.618 76.9324 39.5448C82.0269 37.8186 82.2793 37.7152 82.6991 37.1836C83.896 35.6678 82.9421 33.4662 81.0306 33.3327C80.4537 33.2925 79.5033 33.5609 75.8886 34.7848ZM1.39914 37.7157C0.397879 38.1761 -0.168213 39.3253 0.0444852 40.4661C0.169699 41.1377 0.898735 41.9851 1.52691 42.1895C1.79147 42.2754 3.66516 42.5191 5.69068 42.7308C10.0365 43.1851 12.5528 43.587 14.3659 44.1162C16.2614 44.6695 17.088 44.4929 17.9322 43.3549C18.3667 42.7691 18.3667 41.3339 17.9322 40.7481C17.4016 40.0328 16.9447 39.8002 15.1606 39.3373C12.8372 38.7342 11.2441 38.4732 7.21339 38.0349C2.20604 37.4903 1.92314 37.4748 1.39914 37.7157ZM42.4562 42.0551C40.6186 42.5244 38.03 43.6944 37.3785 44.3501C36.4249 45.3099 36.4241 46.5432 37.3762 47.7371C38.5767 49.2426 38.9885 49.6009 39.6391 49.7056C40.2401 49.8024 40.2635 49.8269 40.2635 50.3624C40.2635 51.129 39.5604 52.2066 38.8182 52.5773C37.9114 53.0303 35.8571 52.9652 34.4581 52.4393C32.5275 51.7134 31.2817 51.9956 30.6539 53.3006C30.2905 54.0563 30.2625 54.5813 30.5496 55.2567C30.8901 56.0578 31.5572 56.5533 32.9258 57.0219C36.1857 58.1378 39.2572 57.9776 41.5118 56.5739L42.2337 56.1242L43.0149 56.7165C44.3386 57.7201 45.1971 57.9895 47.1029 57.9997C49.0091 58.0098 49.8784 57.7954 51.7937 56.8435C53.1693 56.1596 55.2085 54.6119 55.7609 53.8324C56.2466 53.1471 56.2702 51.8065 55.8075 51.178C55.2743 50.4539 54.5762 50.0701 53.792 50.0701C53.0397 50.0701 52.9238 50.1341 51.2469 51.476C50.0469 52.4364 48.601 53.1045 47.5065 53.2044C46.3384 53.3111 45.7839 53.0251 45.4681 52.1535C45.158 51.2976 45.1497 51.2058 45.2834 50.1322C45.3953 49.2342 45.4146 49.2028 46.0461 48.8942C47.5064 48.1801 48.4919 46.8809 48.6354 45.4807C48.7044 44.8081 48.6517 44.5099 48.344 43.8334C47.5157 42.0124 45.2743 41.3356 42.4562 42.0551ZM72.9831 44.9503C71.0666 45.107 70.5118 45.3075 69.9523 46.0456C69.1322 47.128 69.33 48.5763 70.4118 49.4071C70.8997 49.7818 71.0972 49.8384 71.8182 49.8098C72.2793 49.7915 75.0581 49.7513 77.993 49.7203C83.8904 49.6579 83.9402 49.6502 84.6327 48.6729C85.105 48.0064 85.1256 46.6538 84.6728 46.0434C84.0419 45.1928 83.6666 45.0323 82.0182 44.9082C80.0148 44.7572 75.0605 44.7802 72.9831 44.9503ZM14.0333 47.5766C5.23928 49.6308 2.04204 50.5333 1.3796 51.1479C0.269358 52.1779 0.342864 53.914 1.53533 54.8295C2.36477 55.4663 2.95762 55.4696 4.9851 54.8494C7.27788 54.148 9.35029 53.6259 14.3004 52.5026C16.5142 52.0003 18.4562 51.5188 18.6158 51.4328C19.1365 51.1524 19.7044 50.2446 19.7797 49.5728C19.9311 48.2212 18.9456 47.0389 17.597 46.954C17.1513 46.9259 15.8318 47.1564 14.0333 47.5766Z" fill="white"/>
</svg>
