<svg width="31" height="22" viewBox="0 0 31 22" fill="none" xmlns="http://www.w3.org/2000/svg">
<path fill-rule="evenodd" clip-rule="evenodd" d="M24.8648 0.0860665C23.5352 0.386317 22.1511 1.4093 21.3416 2.69007C21.0468 3.15663 20.9974 3.40259 21.1269 3.75937C21.2544 4.11064 21.5426 4.31419 21.9125 4.31419C22.2692 4.31419 22.4687 4.18146 22.7498 3.75736C23.3667 2.8262 24.2132 2.15649 25.0675 1.92361C25.6961 1.75219 26.2284 1.847 26.3378 2.14989C26.5112 2.62953 26.195 3.63564 25.5496 4.65794C25.3555 4.96548 25.3439 5.00812 25.3662 5.3323C25.3857 5.61688 25.4184 5.71014 25.5501 5.85751C25.8558 6.19959 26.2014 6.27431 26.5817 6.08057C26.917 5.90985 27.4993 4.93472 27.8498 3.95736C28.4486 2.28733 28.0686 0.880594 26.8555 0.276994C26.2822 -0.00827852 25.5806 -0.0755362 24.8648 0.0860665ZM3.92522 0.776378C3.02359 1.03146 2.30785 1.87695 2.11635 2.91325C2.03535 3.35118 2.07658 4.14146 2.20373 4.58787C2.46085 5.49103 3.10078 6.47218 3.91072 7.20513C4.53057 7.76604 4.84005 7.93854 5.1586 7.90073C5.60123 7.84827 5.93783 7.46068 5.93745 7.00399C5.93717 6.63993 5.80561 6.44102 5.29414 6.03139C4.54562 5.43187 4.05537 4.75619 3.89452 4.10238C3.61066 2.94814 4.1619 2.2362 5.01967 2.64933C5.41872 2.84158 5.90297 3.32874 6.34053 3.97819C6.54148 4.27643 6.77073 4.56515 6.84999 4.61978C7.07995 4.77828 7.41033 4.79165 7.66892 4.65289C8.00252 4.47384 8.14674 4.22645 8.14674 3.8334C8.14674 3.53189 8.12389 3.47387 7.81947 3.00186C6.68646 1.245 5.22356 0.409042 3.92522 0.776378ZM14.6921 3.29161C14.4936 3.38446 14.3097 3.5871 14.2345 3.79616C14.1558 4.01475 14.0086 5.73918 13.9947 6.60549C13.9842 7.26046 13.9941 7.34763 14.0955 7.49144C14.3082 7.79313 14.483 7.88764 14.8285 7.88764C15.1718 7.88764 15.3479 7.79353 15.5576 7.49798C15.6493 7.3688 15.6771 7.18126 15.7359 6.29635C15.7742 5.71966 15.834 4.97329 15.8688 4.63769C15.941 3.94209 15.9016 3.7254 15.6591 3.48196C15.3903 3.21218 15.0185 3.13896 14.6921 3.29161ZM11.2285 3.84562C10.9273 3.97853 10.7933 4.19345 10.5871 4.87355C10.4189 5.42848 10.3864 5.61774 10.3849 6.05125C10.3828 6.66036 10.4789 6.89082 10.8225 7.10092C11.4016 7.455 12.1013 6.99521 12.1013 6.26065C12.1013 6.0645 12.1665 5.72219 12.2709 5.37087C12.5052 4.58288 12.4529 4.26702 12.0338 3.93779C11.8682 3.80775 11.4285 3.75742 11.2285 3.84562ZM18.1803 3.97676C17.9593 4.08229 17.7317 4.37474 17.6904 4.60612C17.6721 4.70902 17.6649 5.21007 17.6746 5.71955C17.6903 6.54885 17.7039 6.66242 17.8046 6.80411C18.0185 7.10511 18.1927 7.19899 18.5376 7.19899C18.8825 7.19899 19.0568 7.10499 19.2706 6.80388C19.3748 6.65691 19.383 6.5667 19.383 5.56346C19.383 4.37967 19.3715 4.33215 19.0156 4.05256C18.835 3.91076 18.4011 3.87139 18.1803 3.97676ZM18.4379 12.2205C17.9328 12.2956 17.7443 12.3763 17.5612 12.5957C17.1708 13.0635 17.3172 13.7554 17.8643 14.0285C18.0468 14.1196 18.1165 14.1221 18.63 14.0554C19.0266 14.0039 19.3855 13.9966 19.8344 14.0308C20.8552 14.1085 21.0192 14.1009 21.1893 13.9671C21.4755 13.7423 21.5648 13.5589 21.5648 13.196C21.5648 12.6785 21.303 12.3749 20.7728 12.2775C20.3367 12.1974 18.8391 12.1609 18.4379 12.2205ZM11.9437 12.3936C11.148 12.5224 10.4982 12.6582 10.1358 12.7715C9.47055 12.9793 9.26759 13.8043 9.7604 14.2975C10.0502 14.5876 10.2515 14.6177 10.8814 14.4655C11.1623 14.3977 11.7938 14.2806 12.2848 14.2056C12.7758 14.1305 13.2289 14.0401 13.2917 14.0048C13.4886 13.8939 13.695 13.5537 13.7228 13.2943C13.7575 12.9705 13.6369 12.6784 13.3849 12.4762C13.1246 12.2673 12.8289 12.2504 11.9437 12.3936ZM27.5375 13.1942C26.6525 13.5075 25.7462 13.8233 25.5234 13.896C25.1984 14.002 25.0868 14.0697 24.9581 14.239C24.647 14.6483 24.7146 15.2066 25.114 15.5269C25.4865 15.8256 25.6958 15.7861 27.9163 14.9998C29.7649 14.345 29.8565 14.3058 30.0088 14.1041C30.4431 13.5292 30.097 12.6941 29.4034 12.6434C29.194 12.6282 28.8492 12.73 27.5375 13.1942ZM0.507702 14.306C0.144377 14.4806 -0.061039 14.9165 0.0161422 15.3492C0.0615783 15.6039 0.326122 15.9254 0.554066 16.0029C0.650065 16.0355 1.32997 16.1279 2.06496 16.2082C3.64192 16.3806 4.555 16.533 5.21292 16.7337C5.90074 16.9436 6.20068 16.8766 6.50701 16.445C6.6647 16.2227 6.6647 15.6784 6.50701 15.4562C6.31446 15.1848 6.1487 15.0966 5.5013 14.921C4.6582 14.6923 4.08013 14.5933 2.61751 14.427C0.800501 14.2204 0.697846 14.2146 0.507702 14.306ZM15.406 15.9519C14.7392 16.13 13.7998 16.5737 13.5634 16.8224C13.2174 17.1865 13.2171 17.6543 13.5626 18.1072C13.9982 18.6782 14.1477 18.8141 14.3838 18.8538C14.6018 18.8906 14.6103 18.8999 14.6103 19.103C14.6103 19.3937 14.3552 19.8025 14.0859 19.9431C13.7568 20.1149 13.0114 20.0903 12.5037 19.8908C11.8032 19.6154 11.3511 19.7225 11.1233 20.2175C10.9914 20.5041 10.9813 20.7033 11.0855 20.9594C11.209 21.2633 11.4511 21.4512 11.9477 21.629C13.1306 22.0523 14.2452 21.9915 15.0633 21.4591L15.3253 21.2885L15.6087 21.5132C16.089 21.8938 16.4006 21.996 17.0921 21.9999C17.7838 22.0037 18.0993 21.9224 18.7943 21.5613C19.2934 21.3019 20.0334 20.7149 20.2338 20.4192C20.4101 20.1592 20.4186 19.6507 20.2507 19.4123C20.0573 19.1377 19.804 18.9921 19.5194 18.9921C19.2464 18.9921 19.2043 19.0164 18.5958 19.5254C18.1604 19.8897 17.6357 20.1431 17.2386 20.181C16.8147 20.2214 16.6135 20.113 16.4989 19.7824C16.3864 19.4577 16.3834 19.4229 16.4319 19.0157C16.4725 18.675 16.4795 18.6631 16.7086 18.5461C17.2385 18.2752 17.5961 17.7824 17.6482 17.2513C17.6733 16.9962 17.6541 16.883 17.5425 16.6265C17.2419 15.9358 16.4286 15.679 15.406 15.9519ZM26.4832 17.0501C25.7878 17.1096 25.5864 17.1856 25.3834 17.4656C25.0858 17.8761 25.1576 18.4255 25.5502 18.7406C25.7272 18.8828 25.7989 18.9042 26.0605 18.8934C26.2278 18.8864 27.2362 18.8712 28.3011 18.8594C30.4411 18.8358 30.4592 18.8328 30.7105 18.4621C30.8818 18.2093 30.8893 17.6963 30.725 17.4647C30.4961 17.1421 30.3599 17.0812 29.7618 17.0341C29.0348 16.9769 27.237 16.9856 26.4832 17.0501ZM5.09222 18.0463C1.90117 18.8255 0.740992 19.1678 0.500611 19.4009C0.0977415 19.7916 0.124414 20.4501 0.55712 20.7974C0.8581 21.0389 1.07323 21.0402 1.80893 20.805C2.64091 20.5389 3.39292 20.3409 5.18914 19.9148C5.99248 19.7242 6.69715 19.5416 6.75508 19.509C6.94402 19.4026 7.15009 19.0583 7.17742 18.8035C7.23235 18.2908 6.87475 17.8423 6.38537 17.8101C6.22364 17.7995 5.74485 17.8869 5.09222 18.0463Z" fill="white"/>
</svg>
