<svg width="32" height="23" viewBox="0 0 32 23" fill="none" xmlns="http://www.w3.org/2000/svg">
<path fill-rule="evenodd" clip-rule="evenodd" d="M25.7711 0.711066C24.4414 1.01132 23.0573 2.0343 22.2479 3.31507C21.953 3.78163 21.9036 4.02759 22.0331 4.38437C22.1606 4.73564 22.4489 4.93919 22.8188 4.93919C23.1755 4.93919 23.375 4.80646 23.656 4.38236C24.273 3.4512 25.1195 2.78149 25.9737 2.54861C26.6024 2.37719 27.1347 2.472 27.2441 2.77489C27.4174 3.25453 27.1012 4.26065 26.4559 5.28294C26.2617 5.59048 26.2501 5.63312 26.2724 5.9573C26.292 6.24188 26.3246 6.33514 26.4564 6.48251C26.7621 6.82459 27.1076 6.89931 27.4879 6.70557C27.8232 6.53485 28.4056 5.55972 28.756 4.58236C29.3548 2.91233 28.9748 1.50559 27.7617 0.901994C27.1884 0.616721 26.4869 0.549464 25.7711 0.711066ZM4.83147 1.40138C3.92984 1.65646 3.2141 2.50195 3.0226 3.53825C2.9416 3.97618 2.98283 4.76646 3.10998 5.21287C3.3671 6.11603 4.00703 7.09718 4.81697 7.83014C5.43682 8.39104 5.7463 8.56355 6.06485 8.52573C6.50748 8.47327 6.84408 8.08568 6.8437 7.62899C6.84342 7.26493 6.71186 7.06602 6.20039 6.65639C5.45187 6.05687 4.96162 5.38119 4.80077 4.72738C4.51691 3.57314 5.06815 2.8612 5.92592 3.27433C6.32497 3.46658 6.80922 3.95374 7.24678 4.60319C7.44773 4.90143 7.67698 5.19015 7.75624 5.24478C7.9862 5.40328 8.31658 5.41665 8.57517 5.27789C8.90877 5.09884 9.05299 4.85145 9.05299 4.4584C9.05299 4.15689 9.03014 4.09887 8.72572 3.62686C7.59271 1.87 6.12981 1.03404 4.83147 1.40138ZM15.5984 3.91661C15.3998 4.00946 15.216 4.2121 15.1407 4.42116C15.062 4.63975 14.9148 6.36418 14.9009 7.23049C14.8905 7.88546 14.9004 7.97263 15.0018 8.11644C15.2145 8.41813 15.3893 8.51264 15.7348 8.51264C16.0781 8.51264 16.2541 8.41853 16.4639 8.12298C16.5556 7.9938 16.5834 7.80626 16.6422 6.92135C16.6805 6.34466 16.7403 5.59829 16.7751 5.26269C16.8472 4.56709 16.8079 4.3504 16.5653 4.10696C16.2965 3.83718 15.9247 3.76396 15.5984 3.91661ZM12.1348 4.47063C11.8336 4.60353 11.6995 4.81845 11.4933 5.49855C11.3251 6.05348 11.2926 6.24275 11.2911 6.67625C11.289 7.28536 11.3851 7.51582 11.7288 7.72592C12.3078 8.08 13.0075 7.62021 13.0075 6.88565C13.0075 6.68951 13.0728 6.34719 13.1772 5.99587C13.4114 5.20788 13.3592 4.89202 12.94 4.56279C12.7744 4.43275 12.3347 4.38242 12.1348 4.47063ZM19.0866 4.60176C18.8656 4.70729 18.6379 4.99974 18.5966 5.23112C18.5783 5.33402 18.5712 5.83507 18.5808 6.34455C18.5965 7.17385 18.6102 7.28742 18.7109 7.42911C18.9248 7.73011 19.099 7.824 19.4438 7.824C19.7888 7.824 19.9631 7.72999 20.1768 7.42888C20.2811 7.28191 20.2893 7.1917 20.2893 6.18846C20.2893 5.00467 20.2777 4.95715 19.9218 4.67756C19.7413 4.53576 19.3074 4.49639 19.0866 4.60176ZM19.3442 12.8455C18.8391 12.9206 18.6506 13.0013 18.4674 13.2207C18.077 13.6885 18.2234 14.3804 18.7706 14.6535C18.953 14.7446 19.0227 14.7471 19.5363 14.6804C19.9329 14.6289 20.2917 14.6216 20.7407 14.6558C21.7614 14.7335 21.9254 14.7259 22.0956 14.5921C22.3818 14.3673 22.4711 14.1839 22.4711 13.821C22.4711 13.3035 22.2093 12.9999 21.679 12.9025C21.243 12.8224 19.7454 12.7859 19.3442 12.8455ZM12.8499 13.0186C12.0543 13.1474 11.4045 13.2832 11.042 13.3965C10.3768 13.6043 10.1738 14.4293 10.6667 14.9225C10.9565 15.2126 11.1578 15.2427 11.7876 15.0905C12.0685 15.0227 12.7 14.9056 13.1911 14.8306C13.682 14.7555 14.1351 14.6651 14.198 14.6298C14.3949 14.5189 14.6013 14.1787 14.6291 13.9193C14.6638 13.5955 14.5431 13.3034 14.2912 13.1012C14.0309 12.8923 13.7351 12.8754 12.8499 13.0186ZM28.4438 13.8192C27.5588 14.1325 26.6525 14.4483 26.4297 14.521C26.1047 14.627 25.993 14.6947 25.8643 14.864C25.5532 15.2733 25.6208 15.8316 26.0203 16.1519C26.3927 16.4506 26.602 16.4111 28.8225 15.6248C30.6712 14.97 30.7627 14.9308 30.9151 14.7291C31.3494 14.1542 31.0032 13.3191 30.3096 13.2684C30.1003 13.2532 29.7554 13.355 28.4438 13.8192ZM1.41395 14.931C1.05063 15.1056 0.845211 15.5415 0.922392 15.9742C0.967828 16.2289 1.23237 16.5504 1.46032 16.6279C1.55632 16.6605 2.23622 16.7529 2.97121 16.8332C4.54817 17.0056 5.46125 17.158 6.11917 17.3587C6.80699 17.5686 7.10693 17.5016 7.41326 17.07C7.57095 16.8477 7.57095 16.3034 7.41326 16.0812C7.22071 15.8098 7.05495 15.7216 6.40755 15.546C5.56445 15.3173 4.98638 15.2183 3.52376 15.052C1.70675 14.8454 1.6041 14.8396 1.41395 14.931ZM16.3122 16.5769C15.6454 16.755 14.7061 17.1987 14.4697 17.4474C14.1237 17.8115 14.1234 18.2793 14.4689 18.7322C14.9045 19.3032 15.0539 19.4391 15.29 19.4788C15.5081 19.5156 15.5166 19.5249 15.5166 19.728C15.5166 20.0187 15.2614 20.4275 14.9921 20.5681C14.6631 20.7399 13.9176 20.7153 13.41 20.5158C12.7094 20.2404 12.2574 20.3475 12.0296 20.8425C11.8977 21.1291 11.8875 21.3283 11.9917 21.5844C12.1153 21.8883 12.3573 22.0763 12.854 22.254C14.0369 22.6773 15.1514 22.6165 15.9695 22.0841L16.2315 21.9135L16.515 22.1382C16.9953 22.5188 17.3068 22.621 17.9984 22.6249C18.6901 22.6287 19.0055 22.5474 19.7005 22.1863C20.1997 21.9269 20.9396 21.3399 21.1401 21.0442C21.3163 20.7842 21.3249 20.2757 21.157 20.0373C20.9635 19.7627 20.7102 19.6171 20.4256 19.6171C20.1526 19.6171 20.1106 19.6414 19.5021 20.1504C19.0666 20.5147 18.542 20.7681 18.1448 20.806C17.721 20.8464 17.5198 20.738 17.4052 20.4074C17.2926 20.0827 17.2896 20.0479 17.3381 19.6407C17.3788 19.3 17.3857 19.2881 17.6149 19.1711C18.1448 18.9002 18.5024 18.4074 18.5545 17.8763C18.5795 17.6212 18.5604 17.508 18.4487 17.2515C18.1482 16.5608 17.3348 16.304 16.3122 16.5769ZM27.3895 17.6751C26.694 17.7346 26.4927 17.8106 26.2897 18.0906C25.9921 18.5011 26.0639 19.0505 26.4564 19.3656C26.6335 19.5078 26.7051 19.5292 26.9667 19.5184C27.1341 19.5114 28.1424 19.4962 29.2074 19.4844C31.3474 19.4608 31.3654 19.4578 31.6167 19.0871C31.7881 18.8343 31.7956 18.3213 31.6313 18.0897C31.4023 17.7671 31.2661 17.7062 30.668 17.6591C29.941 17.6019 28.1433 17.6106 27.3895 17.6751ZM5.99847 18.6713C2.80742 19.4505 1.64724 19.7928 1.40686 20.0259C1.00399 20.4166 1.03066 21.0751 1.46337 21.4224C1.76435 21.6639 1.97948 21.6652 2.71518 21.43C3.54716 21.1639 4.29917 20.9659 6.09539 20.5398C6.89873 20.3492 7.6034 20.1666 7.66133 20.134C7.85027 20.0276 8.05634 19.6833 8.08367 19.4285C8.1386 18.9158 7.781 18.4673 7.29162 18.4351C7.12989 18.4245 6.6511 18.5119 5.99847 18.6713Z" fill="white" fill-opacity="0.5"/>
</svg>
